/* XPM */
static char *_68ba03fbf0346889438541225429182n4nMiCTN8VCiQhsb[] = {
/* columns rows colors chars-per-pixel */
"64 64 124 2 ",
"   c None",
".  c #3762CC",
"X  c #3B65CE",
"o  c #3D68CF",
"O  c #3F69D0",
"+  c #4166CC",
"@  c #4369CD",
"#  c #5373CD",
"$  c #5976CE",
"%  c #436DD1",
"&  c #4671D3",
"*  c #4C75D5",
"=  c #4E78D7",
"-  c #5177D4",
";  c #527AD6",
":  c #537CD9",
">  c #6275C7",
",  c #667ECF",
"<  c #6A7FCD",
"1  c #617FD3",
"2  c #5D81D6",
"3  c #5680DB",
"4  c #5B83DC",
"5  c #5F88DF",
"6  c #7987CC",
"7  c #7F8BCD",
"8  c #6482D4",
"9  c #6486D9",
"0  c #6289DD",
"q  c #6C8DDC",
"w  c #7084D0",
"e  c #7795DD",
"r  c #648DE1",
"t  c #698FE2",
"y  c #6790E3",
"u  c #6B93E5",
"i  c #6F99E6",
"p  c #7093E0",
"a  c #7199E7",
"s  c #7F9CE1",
"d  c #759DE9",
"f  c #789FEB",
"g  c #7DA4ED",
"h  c #AD8CB6",
"j  c #878FCD",
"k  c #8790CF",
"l  c #8D93CE",
"z  c #9295CE",
"x  c #9D9BCD",
"c  c #AFA6CE",
"v  c #B4A8CE",
"b  c #A9A4D0",
"n  c #89A4E3",
"m  c #80A7EE",
"M  c #82A9EF",
"N  c #96B0E7",
"B  c #9BB3E8",
"V  c #86ADF1",
"C  c #88AFF2",
"Z  c #8DB3F4",
"A  c #91B7F6",
"S  c #93B9F7",
"D  c #96BCF9",
"F  c #99BEFA",
"G  c #A6BBEC",
"H  c #ABBEEE",
"J  c #C7B2CE",
"K  c #CAB5CE",
"L  c #D2B9CF",
"P  c #9DC2FC",
"I  c #ACC1ED",
"U  c #B2C5EF",
"Y  c #A1C6FE",
"T  c #A4C9FF",
"R  c #AACBFD",
"E  c #B3CAF6",
"W  c #BACCF3",
"Q  c #BED0F3",
"!  c #B5D3FE",
"~  c #BBD6FE",
"^  c #DEC0CF",
"/  c #DEC0CF",
"(  c #DDCDDF",
")  c #E7C5CF",
"_  c #EBC7CE",
"`  c #EEC9CF",
"'  c #F6CECF",
"]  c #F7CECF",
"[  c #F4CCCF",
"{  c #F9CFCF",
"}  c #F9CFCF",
"|  c #E7CAD5",
" . c #EBCED7",
".. c #EDCED6",
"X. c #E7CED9",
"o. c #E6CEDA",
"O. c #E1CDDD",
"+. c #E9CED8",
"@. c #F5CFD1",
"#. c #F6CFD0",
"$. c #D6CCE3",
"%. c #D2CCE5",
"&. c #CADAF5",
"*. c #CCDBF6",
"=. c #C2DBFD",
"-. c #C7DDFD",
";. c #C3DBFD",
":. c #CADFFD",
">. c #C8DDFD",
",. c #D0DEF7",
"<. c #CEE0FD",
"1. c #D0E1FD",
"2. c #D5E5FD",
"3. c #D8E5FA",
"4. c #DBE7FA",
"5. c #D9E7FC",
"6. c #DEE9FB",
"7. c #DBE9FC",
"8. c #DDE9FC",
"9. c #DEEAFC",
"0. c #DFEAFC",
"q. c #DEE9FC",
"w. c #E0EBFC",
"e. c #E0EBFC",
/* pixels */
"                            o X @                                                           X X                                 ",
"                            % D 0 . X                                                   X O g M @                               ",
"                            = T T S 4 X                                             X X u Y T F X                               ",
"                            ; R ] $.R Z = o                                     X X r F E X.O.F X                               ",
"                            : E { { @.%.R V % X X . % * * = * = * = = % O . X X ; D E ( { { X.P .                               ",
"                            3 E { { { ] c % ; a S T T T T T T T T T T T T T V r % 1 L ] { ]  .P .                               ",
"                            4 E { { ^ # * C T T T T T T T T T T T T T T T T T T T i @ k ] {  .T .                               ",
"                            4 W { K @ a T T T T T T T T T T T T T T T T T T T T T T P ; , _ ..T .                               ",
"                            r W K @ V T T T T T T T T T T T T T T T T T T T T T T T T T 0 $ | T .                               ",
"                            r H @ M T T T T T T T T T T T T T T T T T T T T T T T T T T T 4 w T X                               ",
"                            r * a T T T T T T T T T T T T T T T T T T T T T T T T T T T T T * d X                               ",
"                          . : * T T T T T T T T T T T T T T T T T T T T T T T T T T T T T T Z O o                               ",
"                          . % V T T T T T T T T T T T T T T T T T T T T T T T T T T T T T T T 4 o                               ",
"                          X & T T T T T T T T T T T T T T T T T T T T T T T T T T T T T T T T Z X                               ",
"                          X u T T T T T T T T T T T T T T T T T T T T T T T T T T T T T T T T T %                               ",
"                    . .   X Z T T T T T T T T A r Z T T T T T T T T T T T V y D T T T T T T T T r .   .                         ",
"                      . . . P T T T T T T T T = . & T T T T T T T T T T T o . 3 T T T T T T T T i X .                           ",
"                          . & V T T T T T T T & . o T T T T P F T T T T T . . : T T T T T T T d X .                             ",
"                          % g % : S T T T T T * . & T T R @ X . . e T T T X . 3 T T T T T V & : g O                             ",
"                          X T T u o D T T T T V 3 M ~ 2.e.e > h @ I 7.<.R g 3 Z T T T T u % g T m X                             ",
"                          . P T T P T T T T T T R <.0.e.e.6.n 8 U e.e.e.0.~ T T T T T T P T T T d o                             ",
"                    . . . . r u u u P T T T T R 2.e.e.e.e.e.e.e.e.e.e.e.e.e.=.T T T T T V u u u * . . . .                       ",
"                          X : a a a P T T T T 1.e.e.H B e.e.3.*.e.0.*.e e.e.0.~ T T T T Z i a i o .                             ",
"                            & T T F T T T T ~ e.e.6.W @ G I ; @ N U 9 s e.e.e.9.R T T T P P T A X                               ",
"                            X V r o D T T R 7.e.e.e.e.I 9 9 B W q 2 n 6.e.e.e.e.:.T T T a % g 4 o                               ",
"                            . . 4 D T T T ~ 9.e.e.e.e.e.e.e.9.9.e.e.e.e.e.e.e.e.6.T T T T V & .                                 ",
"                          . . X d T T T T <.e.e.e.e.e.e.e.e.e.e.e.e.e.e.e.e.e.e.e.~ T T T T & X . .                             ",
"                      . .       X V T T T 9.e.e.e.e.e.e.e.e.e.e.e.e.e.e.e.e.e.e.e.:.T T T 0 X     . . .                         ",
"                    X             X C T ! 9.e.e.e.e.e.e.e.e.e.e.e.e.e.e.e.e.e.e.e.3.T T y X           .                         ",
"                                    X f =.w.e.e.e.e.e.e.e.e.e.e.e.e.e.e.e.e.e.e.e.e.T : O                                       ",
"                                      X 2 Q w.e.e.e.e.e.e.e.e.e.e.e.e.e.0.0.e.e.6.B % X                                         ",
"                                      X : % 9 B ,.e.e.e.e.e.e.e.e.e.e.e.e.0.Q n * ; X                                           ",
"                                      o M P g 4 o @ : 9 q q q q q q q 5 = o % q V T 4               X # + +                     ",
"                                      . T T T T T S M M g M g g V g g g C F T T T T g O           X K { ] j @                   ",
"                                      3 T T T T T T T T T T T T T T T T T T T T T T P X         + z { { { [ .                   ",
"                                    X d T T T T T T T T T T T T T T T T T T T T T T T &         @ ` { { { ` X                   ",
"                                    X D T T T T T T T T T T T T T T T T T T T T T T T y X     + v { { { { x @                   ",
"                                    % T T T T T T T T T T T T T T T T T T T T T T T T Z X     $ { { { { ) +                     ",
"                                  X r T T T T T T T T T T T T T T T T T T T T T T T T T X   X L { { { { 6 +                     ",
"                                  X M T T T T T T T T T T T T T T T T T T T T T T T T T 3 X 7 { { { { K X                       ",
"                                  X P T T T T T T T T T T T T T T T T T T T T T T T T T f o _ { { { { $                         ",
"                                  * T T m T T T T T T T T T T T T T T T T T T T T S A T F X [ { { { c +                         ",
"                                o a T T X P T T T T T T T T T T T T T T T T T T T i r T T * K { { ` @                           ",
"                                X Z T T X P T T T T T T T T T T T T T T T T T T T i r T T t z { { l +                           ",
"                                o T T T X D T T T T T T T T T T T T T T T T T T T i r T T V $ { L X                             ",
"                                5 T T T % S T T T T T T T T T T T T T T T T T T T u u T T P X ) w +                             ",
"                              o M T T T * V T T T T T T T T T T T T T T T T T T T 5 d T T T 4 j +                               ",
"                              . T T T T 4 g T T T T T T T T P Z T T T T T T T T T = V T T T g @                                 ",
"                              * T T T T y y T T T T T T T D O % i T T T T T T T T O S T T T S X                                 ",
"                              3 T T T T g 4 T T T T T T T g 3 V ; T T T T T T T P . T T T T T .                                 ",
"                              5 T T T T Z * T T T T T T T g 3 C = T T T T T T T Z & T T T T T .                                 ",
"                              3 T T T T F X T T T T T T T g 4 C = T T T T T T T g 3 T T T T P .                                 ",
"                              * T T T T T % A T T T T T T g 4 V = T T T T T T T r u T T T T A X                                 ",
"                              X T T T T T 3 g T T T T T T g 4 V = T T T T T T T : M T T T T g o                                 ",
"                              O V T T T T i r T T T T T T g 3 V = T T T T T T T X P T T T T 3                                   ",
"                                4 T T T T V * T T T T T T g 4 V = T T T T T T Z % T T T T P X                                   ",
"                                X Z T T T P X P T T T T T g 4 C = T T T T T T d 4 T T T T r o                                   ",
"                                  = T T T T = V T T T T T g 3 V = T T T T T T 4 d T T T S X                                     ",
"                                  o r T T T y u T T T T T g 4 V = T T T T T T % A T T P %                                       ",
"                                    X u T T M : T T T T T g 4 V = T T T T T D o T T F * X                                       ",
"                                      X 4 T D o T T T T T g 4 V = T T T T T M ; T Z % o                                         ",
"                                        X o f O D T T T T g 4 V = T T T T T u r 0 X                                             ",
"                                            X X % f V A F u 4 V % D D Z V r . X X                                               ",
"                                                . . . . . . . . . . . . . . .                                                   "
};
