/* XPM */
static char *_5b8f0a256f5463cfcc4473e5907e0c22tZsYvuRI2s2tX9g[] = {
/* columns rows colors chars-per-pixel */
"64 64 150 2 ",
"   c None",
".  c #7C7ABF",
"X  c #3761CC",
"o  c #3C64CC",
"O  c #4F6AC6",
"+  c #4166CA",
"@  c #4469CD",
"#  c #4B6BCB",
"$  c #526BC7",
"%  c #5C6FC5",
"&  c #546ECA",
"*  c #4671C6",
"=  c #4C74C6",
"-  c #5277C7",
";  c #5579C7",
":  c #5D7DC7",
">  c #5270CC",
",  c #5973CA",
"<  c #5E78CD",
"1  c #456CD0",
"2  c #496ED1",
"3  c #4E70D1",
"4  c #5375D4",
"5  c #5C7AD5",
"6  c #5C7CD9",
"7  c #6372C5",
"8  c #6B76C5",
"9  c #6F78C4",
"0  c #647CCD",
"q  c #697ECD",
"w  c #7277C1",
"e  c #7578C1",
"r  c #7B7BC1",
"t  c #607EDA",
"y  c #857DBD",
"u  c #887FBD",
"i  c #817EC0",
"p  c #6581C7",
"a  c #6481C8",
"s  c #6D85C8",
"d  c #7385CC",
"f  c #758AC8",
"g  c #7D8DCB",
"h  c #6783DC",
"j  c #6C86DC",
"k  c #6E89E0",
"l  c #748DE2",
"z  c #798FE2",
"x  c #7790E4",
"c  c #7C94E5",
"v  c #8680BF",
"b  c #9483BA",
"n  c #9D86B8",
"m  c #A488B7",
"M  c #A88BB7",
"N  c #A389B8",
"B  c #B48FB4",
"V  c #B790B3",
"C  c #BB91B3",
"Z  c #CC97AF",
"A  c #CE98AF",
"S  c #D29AAF",
"D  c #DD9DAC",
"F  c #C293B1",
"G  c #CA96B0",
"H  c #E39FAB",
"J  c #E6A0AB",
"K  c #EBA2AA",
"L  c #F7A6A7",
"P  c #F9A7A7",
"I  c #F3A5A8",
"U  c #838DCD",
"Y  c #8492C9",
"T  c #8B93CB",
"R  c #9297CB",
"E  c #959BCA",
"W  c #9B9DCB",
"Q  c #A19DCE",
"!  c #9FA0CA",
"~  c #A4A3CB",
"^  c #AAA4CD",
"/  c #B5ABCC",
"(  c #BDAECD",
")  c #BDB0CC",
"_  c #8196E6",
"`  c #8196E7",
"'  c #889BEA",
"]  c #8A9DE9",
"[  c #899CEA",
"{  c #8B9CEA",
"}  c #8C9DEA",
"|  c #8C9EEB",
" . c #8D9FED",
".. c #8E9FEC",
"X. c #8C9FEC",
"o. c #8DA0EC",
"O. c #8FA1ED",
"+. c #91A1ED",
"@. c #94A5EE",
"#. c #98A7EF",
"$. c #99A7F0",
"%. c #99A7F0",
"&. c #99A8F1",
"*. c #9BA8F1",
"=. c #9BABF1",
"-. c #9CA9F1",
";. c #9DAAF1",
":. c #9CAAF2",
">. c #9EABF3",
",. c #99A8F1",
"<. c #A2AEF4",
"1. c #A2AEF4",
"2. c #A5B1F4",
"3. c #A7B2F5",
"4. c #A5B1F4",
"5. c #A8B1F5",
"6. c #AAB3F6",
"7. c #ADB5F6",
"8. c #AFB7F8",
"9. c #AEB7F8",
"0. c #AFB8F8",
"q. c #B1B8F9",
"w. c #B0B8F9",
"e. c #B3B9F9",
"r. c #B5BBFA",
"t. c #B7BCFA",
"y. c #B6BCFB",
"u. c #B7BDFB",
"i. c #B7BCFC",
"p. c #B7BEFC",
"a. c #B2B9FA",
"s. c #B8BDFC",
"d. c #B9BEFC",
"f. c #B9BEFC",
"g. c #C4B3CC",
"h. c #C9B4CE",
"j. c #CFB9CD",
"k. c #D4BCCD",
"l. c #D9BDCE",
"z. c #DEC0CD",
"x. c #DEC0CD",
"c. c #E4C4CE",
"v. c #E8C5CF",
"b. c #EBC7CF",
"n. c #E9C6CF",
"m. c #EEC9CF",
"M. c #F5CDCF",
"N. c #F4CCCF",
"B. c #F9CFCF",
"V. c #F9CFCF",
/* pixels */
"                                                                                                                                ",
"                                                                                                                                ",
"                                                                                                                                ",
"                                                                                  + + + + + + + + + + + + + + +                 ",
"                                                            o O $ o             o Z S S S S S S S S S S S S S G o               ",
"                                                          o n P L n +           + P P P P P I P P P P P P P P P @               ",
"                                                        o B P P P P V o         @ P P P P P P P P P P P P P P P @               ",
"                                                      + Z P P P P P P A @ o     + P P P P P P P P P P P P P P P @               ",
"                                                  + # D P P P P P P P P H O +   o n n n n N n N n N n N n N n n o               ",
"                                                @ % J P P P P P P P P P P K 7 +   o 4 j j j j j j j j j j j 4 o                 ",
"                                              + . L P P P P P P P P P P P P I y + X l u.f.f.f.f.s.f.f.f.s.s.z X                 ",
"                                            + b L P P P P P P P P P P P P P P P m + h u.f.f.f.f.f.f.f.f.f.f.l X                 ",
"                                          o B P P P P P P P P P P P P P P P P P P V o ..u.f.f.f.f.f.f.f.f.f.l X                 ",
"                                        + Z P P P P P P P P P P L P P P P P P P P P A @ _ f.f.f.f.f.f.f.f.f.l X                 ",
"                                    + $ D P P P P P P P P P N + o m P P P P P P P P P D & k u.f.f.f.f.f.f.f.l X                 ",
"                                  + % J P P P P P P P P P i 2 <.1.3 y I P P P P P P P P J 7 0 r.f.f.f.f.f.f.l X                 ",
"                                o . I P P P P P P P P I 8 5 8.f.s.r.5 8 K P P P P P P P P I r 4 6.f.f.f.f.f.l X                 ",
"                              o b L P P P P P P P P H , h r.f.f.f.f.t.k & H P P P P P P P P P n @ ;.f.f.f.f.l X                 ",
"                            o B L P P P P P P P P S @ z s.f.f.f.f.f.f.f._ @ G P P P P P P P P P V + +.f.f.f.l X                 ",
"                          + Z P L P P P P P P P C + ..f.f.f.f.f.f.f.f.f.f...+ B P P P P P P P P P S @ z f.s.l X                 ",
"                      + # D P P P P P P P P P N 1 %.f.f.f.f.f.f.f.f.f.f.f.f.;.@ b P P P P P P P P P H & j i.l X                 ",
"                    o % H P P P P P P P P L v 2 <.f.f.f.f.f.f.f.f.f.f.f.f.f.f.6.3 i I P P P P P P P P K 7 5 l X                 ",
"                  + e L P P P P P P P P I 9 4 w.f.f.f.f.f.f.f.f.f.f.f.f.f.f.f.f.8.5 8 K P P P P P P P P I r 1 X                 ",
"                + u P P P P P P P P P H & h t.u.f.f.f.f.f.f.f.f.f.f.f.f.f.f.f.f.f.t.h , H P P P P P P P P P b +                 ",
"              o M P P P P P P P P P S # z s.f.f.f.f.f.f.f.f.f.f.f.f.f.f.f.f.f.f.f.f.f._ # S P P P P P P P P P V +               ",
"            + G P P P P P P P P P F @ } f.f.f.f.f.f.f.f.f.f.f.f.f.f.f.f.f.f.f.f.f.f.f.f.o.+ C P P P P P P P P P G +             ",
"        + # D P P P P P P P P P m @ #.f.f.f.f.f.f.f.f.f.f.f.f.f.f.f.f.f.f.f.f.f.f.f.f.f.f.>.@ n P P P P P P P P P D # +         ",
"      o % J L P P P P P P P P v # 5.f.f.f.f.f.f.s.f.f.f.f.f.f.f.f.f.f.f.f.f.s.s.f.f.f.f.f.f.6.2 i I P P P P P P P P K 7 o       ",
"    o e I P P P P P P P P I w 4 8.f.f.f.` 3 o X X X 2 l i.f.f.f.f.f.s.i.l 2 o X X o 4 _ f.f.f.w.5 8 K P P P P P P P P L r o     ",
"  + b P P P P P P P P P H , h u.f.f.;.@ o a / x.v.( d + o ' f.f.f.f.' o o d ( v.l./ 0 X 1 ;.f.f.r.h % H P P P P P P P P P b o   ",
"+ n P P P P P P P P P S # z u.f.f...X 0 b.B.B.B.B.B.B.M.g X l f.f.l X U M.B.B.B.B.B.B.b.0 X o.f.f.i.z # S P P P P P P P P P n @ ",
"o J P P P P P P P P F @ ] u.u.f.;.X U B.B.B.B.B.B.B.B.B.B.^ X l l X ^ B.B.B.B.B.B.B.B.B.B.U X ;.f.f.f.] + F P P P P P P P P H o ",
"@ M P P P P P L P N @ &.f.f.p.p.o p B.B.B.B.B.B.V.V.V.V.B.B.^ o X ^ B.B.B.B.B.B.V.V.V.V.V.V.a 1 i.f.f.f.&.@ N P P P P P P P M + ",
"  o V P P P P L v @ 4.f.f.f.p.l o M.B.B.B.B.B.B.V.V.V.V.B.M.M.M.M.B.B.B.B.B.B.B.V.V.V.V.V.V.M.X l f.f.f.f.4.@ y P P P P P B o   ",
"    o B P P I 9 o l f.f.f.f.p.o R B.B.B.B.B.B.B.V.V.V.m.~ ! x.B.B.g.R ( B.B.B.B.V.V.V.V.V.V.V.T o f.f.f.f.f.k + 8 K P P C +     ",
"      o b B & + X l f.f.f.f.<.X N.B.B.B.B.B.B.B.V.V.V.g * * ; m.g.* * * / B.B.B.V.V.V.V.V.V.V.m.X <.f.f.f.f.l X o $ V n o       ",
"        + @     X l u.u.f.f.k # B.B.B.B.B.B.B.B.V.V.V.* * * * h.R * * * Y B.B.B.V.V.V.V.V.V.V.V.@ l f.f.f.f.l X     @ +         ",
"                X l f.u.f.f.6 , B.B.B.B.B.B.B.B.V.V.V.* * * * g.T * * * g B.B.B.V.V.V.V.V.V.V.V.< 5 f.f.f.f.l X                 ",
"                X l f.f.f.f.6 a B.B.B.B.B.B.B.c.! ! c.a * * * c.^ * * * ~ k.R ~ N.V.V.V.V.V.V.V.0 4 f.f.f.f.l X                 ",
"                X l f.f.i.i.6 < B.B.B.B.B.B.B.p o o a x.s a / M.N.E : Y z.= * * Y V.V.V.V.V.V.V.5 5 f.f.f.f.l X                 ",
"                X l f.f.f.f.k # B.B.B.B.B.B.c.* * * * x.B.n.R s s ! m.B.) * * * ; B.B.B.V.V.V.V.# h f.f.f.f.l X                 ",
"                X l f.f.f.f.@.X B.B.B.B.B.B.c.* * * * x.x.- * * * * p N./ * * * ; B.B.B.V.V.V.V.X @.f.f.f.u.l X                 ",
"                X l f.f.f.f.i.X ^ B.B.B.B.B.B.; * * - N.f * * * * * * ! z.* * * f B.B.B.V.V.V.^ o f.f.f.f.f.l X                 ",
"                X l f.f.f.f.f.6 = B.B.B.B.B.B.j.s s h.B.= * * * * * * p B./ p f x.B.B.B.V.V.V.# h f.f.f.f.f.l X                 ",
"                X l f.f.f.f.i.9.o R B.B.B.B.B.B.B.B.g.s * * * * * * * * g z.M.M.B.B.B.B.B.B.R o 9.f.f.f.f.f.l X                 ",
"                X l f.f.f.f.f.f.c o h.M.B.B.B.B.B./ * * * * * * * * * * * = z.B.B.B.B.B.B.g.X _ i.f.f.f.f.f.l X                 ",
"                X l f.f.f.f.f.f.p.h o x.B.B.B.B.M.- * * * * * * * * * * * * f B.B.B.B.B.z.o h p.f.f.f.f.f.f.l X                 ",
"                X l f.f.f.f.p.p.p.p.4 o c.B.B.B.x.* * * * * * * * * * * * * = B.B.B.B.b.o 4 p.p.f.f.f.f.f.f.l X                 ",
"                X l f.f.f.f.f.f.f.f.i.2 @ m.B.B.v.* * * * * * * * * * * * * < B.B.B.b.@ 2 i.f.f.f.f.f.f.f.f.l X                 ",
"                X l f.f.f.f.f.f.f.f.f.r.1 2 M.B.B.T * * * * * * * * * * * * ^ B.B.B.> 1 r.f.f.f.f.f.f.f.f.f.l X                 ",
"                X l f.f.f.f.f.f.f.f.f.f.w.+ , B.B.m.Y * * * * * * * * * = ! M.B.B.< o 9.i.i.f.f.f.f.f.f.f.f.l X                 ",
"                X l f.f.f.f.f.f.f.f.f.f.f.<.o d B.B.B.c.g.) ) ) ) ) ) g.b.B.B.B.d X <.f.f.f.f.f.f.f.f.f.f.f.l X                 ",
"                o l f.f.f.f.f.f.f.f.f.f.f.f.%.X Y B.B.B.B.B.B.B.B.B.B.B.B.B.B.T X @.f.f.f.f.f.f.f.f.f.f.f.f.l X                 ",
"                X l f.f.f.f.f.f.f.f.f.f.f.f.f.O.X Q B.B.B.B.B.B.B.B.B.B.B.B.~ X o.f.f.f.f.f.f.f.f.f.f.f.f.f.l X                 ",
"                X l f.f.f.f.f.f.f.f.f.f.f.f.f.f.c X Q B.B.B.B.B.V.V.B.B.B.Q X c f.f.f.f.f.f.f.f.f.f.f.f.f.f.l X                 ",
"                X l f.f.f.f.f.f.f.f.f.f.f.f.f.f.i.c X d M.B.B.B.V.V.V.V.d X c f.f.f.f.f.f.f.f.f.f.f.f.f.f.f.l X                 ",
"                X l f.f.f.f.f.f.f.f.f.f.f.f.f.f.f.f.O.o o d ) n.v.) d X @ o.f.f.f.f.f.f.f.f.f.f.f.f.f.f.f.f.l X                 ",
"                  h f.f.f.f.f.f.f.f.f.f.f.f.f.f.f.f.f.i.x 2 o X X X 3 x i.i.f.f.f.f.f.f.f.f.f.f.f.f.f.f.f.f.h                   ",
"                  1 w.f.f.f.f.f.f.f.p.p.f.f.f.f.f.f.i.i.i.p.p.p.p.f.f.f.i.i.f.f.f.f.p.p.f.f.f.f.f.f.i.f.f.r.1                   ",
"                  o 4 ,.9.w.w.r.0.0.r.r.r.9.q.q.0.r.r.0.0.r.a.a.w.w.w.w.w.r.0.r.0.0.r.r.r.9.q.q.9.r.r.0.,.3 1                   ",
"                      o o o o o o o o o o o o o o o o o o o o o o o o o o o o o o o o o o o o o o o o o o                       ",
"                                                                                                                                ",
"                                                                                                                                ",
"                                                                                                                                "
};
