/* XPM */
static char *_d518f0fb2334803a85700ca6fbaefe1OiGbYhDRzxUopcRb[] = {
/* columns rows colors chars-per-pixel */
"64 64 199 2 ",
"   c None",
".  c #6D83B7",
"X  c #6E83B6",
"o  c #6E82B7",
"O  c #6F82B7",
"+  c #6E83B7",
"@  c #6F83B7",
"#  c #6E84B7",
"$  c #6E83B8",
"%  c #6F83B8",
"&  c #6F84B8",
"*  c #7084B7",
"=  c #7084B8",
"-  c #7085B8",
";  c #7185B8",
":  c #7186B9",
">  c #7286B9",
",  c #7387B9",
"<  c #7286BA",
"1  c #7488B9",
"2  c #7488BA",
"3  c #768ABB",
"4  c #778ABB",
"5  c #788BBB",
"6  c #7C8FBB",
"7  c #7C8FBD",
"8  c #7D90BD",
"9  c #7E90BC",
"0  c #7F90BC",
"q  c #7E90BE",
"w  c #7E91BE",
"e  c #7F91BE",
"r  c #7F93BF",
"t  c #8192BD",
"y  c #8093BF",
"u  c #8495C1",
"i  c #8596C2",
"p  c #8D9DC5",
"a  c #8E9FC5",
"s  c #8D9DC6",
"d  c #8E9EC6",
"f  c #8F9FC6",
"g  c #96A3C2",
"h  c #92A1C7",
"j  c #91A2C7",
"k  c #9DA8C4",
"l  c #94A3C8",
"z  c #94A4C9",
"x  c #98A7CA",
"c  c #9CABCD",
"v  c #9EACCD",
"b  c #9FADCE",
"n  c #A4AEC6",
"m  c #A0AECE",
"M  c #A1AFCE",
"N  c #A3B0CF",
"B  c #A3B1CF",
"V  c #A4B1D0",
"C  c #A5B1D0",
"Z  c #A6B2D1",
"A  c #A6B3D1",
"S  c #A8B4D2",
"D  c #AAB5D2",
"F  c #AAB6D2",
"G  c #ABB7D3",
"H  c #ACB7D3",
"J  c #ACB8D3",
"K  c #ADB8D4",
"L  c #ADB9D4",
"P  c #AEB9D4",
"I  c #AEBAD4",
"U  c #AFBBD5",
"Y  c #B1BCD6",
"T  c #B2BDD6",
"R  c #B4BED7",
"E  c #BBC0CD",
"W  c #BDC1CC",
"Q  c #BDC2CD",
"!  c #B5C0D7",
"~  c #B6C0D8",
"^  c #B6C1D8",
"/  c #B7C1D8",
"(  c #B8C1D9",
")  c #B8C2D9",
"_  c #B8C3D9",
"`  c #B9C3DA",
"'  c #BAC3DA",
"]  c #BDC6DB",
"[  c #BEC7DB",
"{  c #BFC7DB",
"}  c #BFC8DC",
"|  c #BFC9DC",
" . c #C0C4CD",
".. c #C0C9DD",
"X. c #C0CADD",
"o. c #C3CBDE",
"O. c #C4CCDF",
"+. c #C6CEDF",
"@. c #C6CFDF",
"#. c #CFD0D2",
"$. c #D1D2D3",
"%. c LightGray",
"&. c #D3D3D4",
"*. c gray83",
"=. c #D4D4D5",
"-. c #D5D5D5",
";. c #D5D5D6",
":. c #D5D6D6",
">. c gray84",
",. c #D6D6D7",
"<. c #D7D7D7",
"1. c #D4D6D8",
"2. c #D7D7D8",
"3. c #D7D8D8",
"4. c #D6D8D9",
"5. c #D8D8D8",
"6. c #D8D9D9",
"7. c #D9D9DA",
"8. c #D9DADA",
"9. c #DADADB",
"0. c #DADBDB",
"q. c #DBDBDC",
"w. c #DBDCDD",
"e. c #DCDDDD",
"r. c #DCDDDE",
"t. c #DEDFDF",
"y. c #C7CFE0",
"u. c #C7D0E0",
"i. c #C8D0E0",
"p. c #CAD0E1",
"a. c #CAD1E1",
"s. c #CBD1E2",
"d. c #CCD2E2",
"f. c #CCD3E2",
"g. c #CDD3E3",
"h. c #CDD4E2",
"j. c #CED5E2",
"k. c #CED4E3",
"l. c #CFD6E3",
"z. c #D0D7E4",
"x. c #D2D7E4",
"c. c #D1D8E4",
"v. c #D6DCE6",
"b. c #D6DCE7",
"n. c #D7DDE7",
"m. c #DEDFE0",
"M. c #D8DDE7",
"N. c #D8DEE7",
"B. c #D9DEE7",
"V. c #DADEE8",
"C. c #DADFE8",
"Z. c #DBDFE9",
"A. c #DCDFE9",
"S. c #DFE0E1",
"D. c #DBE0E9",
"F. c #DCE1EA",
"G. c #DEE2EB",
"H. c #DFE3EB",
"J. c #E0E1E1",
"K. c #E0E1E2",
"L. c #E0E1E3",
"P. c #E2E3E4",
"I. c #E2E3E5",
"U. c #E4E5E6",
"Y. c #E4E5E7",
"T. c #E5E6E7",
"R. c #E0E4EA",
"E. c #E0E4EB",
"W. c #E1E5EB",
"Q. c #E5E6E8",
"!. c #E5E7E8",
"~. c #E6E7E9",
"^. c #E2E5EC",
"/. c #E2E6EC",
"(. c #E3E7ED",
"). c #E7E8EA",
"_. c #E7E9EA",
"`. c #E5E9EE",
"'. c #E7EAEE",
"]. c #E8E9EB",
"[. c #E8EAEB",
"{. c #E8EAEC",
"}. c #E9EAEC",
"|. c #E9EBEC",
" X c #E9EBED",
".X c #E8EBEF",
"XX c #E9EBEF",
"oX c #E9ECEF",
"OX c #EAECEE",
"+X c #EBECEE",
"@X c #EBEDEE",
"#X c #EAECEF",
"$X c #EBEDEF",
"%X c #EAEDF0",
"&X c #EBEDF0",
"*X c #EBEEF0",
"=X c #ECEEF0",
"-X c #ECEFF1",
";X c #EDEFF1",
/* pixels */
"                                                              + +                                                               ",
"                                                            + + + +                                                             ",
"                                                        + + + + + + + +                                                         ",
"                                                    + + + + + + + + + + + +                                                     ",
"                                                  % + + + + + + + + + + + + +                                                   ",
"                                              + + + + + + + + + + + + + + + + + +                                               ",
"                                            * + + + + + + + + + + + + + + + + + + +                                             ",
"                                        + + + + + + + + + + + + + + + + + + + + + + + #                                         ",
"                                      + + + + + + + X X + + + 6 8 + + + + + + + + + + + +                                       ",
"                                  + + + + + + + + + + X + % g %.%.k + + + + + + + + + + + + +                                   ",
"                              % + + + + + + + + + + * * 6 R %.%.%.%.Q 6 + + + + + + + + + + + + #                               ",
"                            # + + + + + + + + + + + * g #.%.%.&.%.%.%.#.k * + + + + + + + + + + + +                             ",
"                        + + + + X X + + X X X X + 6 R %.%.%.%.&.%.%.&.%.%.Q 6 + + + + + + + + + + + + +                         ",
"                      + + + + + X X + + X X X X g #.%.%.%.&.6.|.|.6.&.&.%.%.%.k * + + + + + + + + + + + %                       ",
"                  + + + + + + + X X * * X X t R %.%.%.%.&.L.;X;X;X;XI.&.%.%.%.%.Q 6 * + + + + + + + + + + + +                   ",
"                + + + + + + + + X X * * * g %.%.%.%.%.5.|.;X;X;X;X;X;X|.q.%.%.%.%.#.k * + + + + + + + + + + + + %               ",
"            + + + + + + + + + + + + * 6 R %.%.%.%.;.J.;X;X;X;X;X;X;X;X;X;XU.%.%.%.%.%.Q 8 + + + + + + + + + + + + +             ",
"        + + + + + + + + + + + + + + k #.%.%.%.%.q.OX;X;X;X;X;X;X;X;X;X;X;X;XOXt.%.%.%.%.%.n * + + + + + + + + + + + + +         ",
"      + + + + + + + + + + + + + t Q %.%.%.*.*.P.;X;X;X;X;X;X;X;X;X;X;X;X;X;X;X;XL.;.%.%.%.%. .t + + + + + + + + + + + + +       ",
"  + + + + + + + + + + + + + * k #.#.%.%.%.q.+X;X;X;X;X;X;X;X;X;X;X;X;X;X;X;X;X;X;X$Xt.%.%.%.%.%.n * + + + + + + + + + + + + +   ",
"+ + + + + + + + + + + + * 6 Q %.%.%.%.-.T.;X;X;X;X;X;X;X;X;X;X;X;X;X;X;X;X;X;X;X;X;X;X~.;.%.%.%.%.W 6 + + + + + + + + + + + + + ",
"+ + + + + + + + + + + + k #.%.%.%.%.e.+X;X;X;X;X;X;X;X;X;X;X;X;X;X;X;X;X;X;X;X;X;X;X;X;X$Xt.%.%.%.%.%.n * + + + + + + + + + + + ",
"+ + + + + + + + + + t Q %.%.%.%.-.T.;X;X;X;X;X;X;X;X;X;X;X;X;X;X;X;X;X;X;X;X;X;X;X;X;X;X;X;X).;.%.%.%.%. .t + + + + + + + + + + ",
"+ + + + + + + + + k #.%.%.%.%.t.;X;X;X;X;X;X;X;X;X;X;X;X;X;X;X;X;X;X;X;X;X;X;X;X;X;X;X;X;X;X;X$XJ.%.%.%.%.%.n + + + + + + + + + ",
"+ + + + + + + 6 Q %.%.%.%.<.).;X;X;X;X;X;X;X;X;X;X;X;X;X;X;X;X;X;X;X;X;X;X;X;X;X;X;X;X;X;X;X;X;X;X].6.%.%.%.%. .t + + + + + + + ",
"+ + + + + + k %.%.%.%.&.m.;X;X;X;X;X;X;X;X;X;XF.Y M P v.;X;X;X;X;X;X;X;Xb.P M Y Z.;X;X;X;X;X;X;X;X;X$XJ.%.%.%.%.%.n * # + + + + ",
"+ + + + 8 Q %.%.%.%.2.].;X;X;X;X;X;X;X;X;X;XH % + + + * C &X;X;X;X;X$XB * + + + < J ;X;X;X;X;X;X;X;X;X;X|.6.;.%.%.%.Q t + + + + ",
"+ + + * ;.%.%.%.%.J.;X;X;X;X;X;X;X;X;X;X;XR + + + + + + + K ;X;X;X;XJ + + + + + + + ) ;X;X;X;X;X;X;X;X;X;X$XJ.%.%.%.%.4.  + + + ",
"+ +     6.%.%.6.].;X;X;X;X;X;X;X;X;X;X;X+X5 + + + + + + + < (.;X;X(.< + + + + + + + 5 OX;X;X;X;X;X;X;X;X;X;X;X].4.;.%.6.    % + ",
"%       6.&.S.;X;X;X;X;X;X;X;X;X;X;X;X;Xx.* + + + + + + + + o.;X;Xo.+ + + + + + + + + x.;X;X;X;X;X;X;X;X;X;X;X;X$XJ.;.6.      % ",
"        m.|.;X;X;X;X;X;X;X;X;X;X;X;X;X;X@.+ + + + + + + + + Y ;X;XP + + + + + + + + + d.;X;X;X;X;X;X;X;X;X;X;X;X;X;X|.m.        ",
"        ;X;X;X;X;X;X;X;X;X;X;X;X;X;X;X;XY.* + + + + + + + + D ;X;XD + + + + + + + + + R.;X;X;X;X;X;X;X;X;X;X;X;X;X;X;X;X        ",
"        ;X;X;X;X;X;X;X;X;X;X;X;X;X;X;X;X;Xh + + + + + + # # J ;X;XD + + + + + + + + h ;X;X;X;X;X;X;X;X;X;X;X;X;X;X;X;X;X        ",
"        ;X;X;X;X;X;X;X;X;X;X;X;X;X;X;X;X;Xb.< + + + + + + & ^ ;X;X^ + + + + + + % , N.;X;X;X;X;X;X;X;X;X;X;X;X;X;X;X;X;X        ",
"        ;X;X;X;X;X;X;X;X;X;X;XR.p.l.OX;X;X;X' # + + + + + + c.;X;Xl.& + + + + + + ) ;X;X;X&Xd.p.(.;X;X;X;X;X;X;X;X;X;X;X        ",
"        ;X;X;X;X;X;X;X;X;X;X^ < + # 2 +.;X;X;XP + + + + + 7 &X;X;X&X8 % + + + + P ;X;X;X+.2 # + < ) ;X;X;X;X;X;X;X;X;X;X        ",
"        ;X;X;X;X;X;X;X;X;Xl.+ + + + + < F.;X;X;X[ < + + + } ;X;X;X;X} + + # 2 [ ;X;X;XA.< + + + + + d.;X;X;X;X;X;X;X;X;X        ",
"        ;X;X;X;X;X;X;X;X;Xb + + + + + # z ;X;X;X;X(.Y M +.;X;X;X;X;X;X+.N Y (.;X;X;X;Xl # + + + + + v ;X;X;X;X;X;X;X;X;X        ",
"        ;X;X;X;X;X;X;X;X;Xp + + + + + + * R.;X;X;X;X;X;X;X;X;X;X;X;X;X;X;X;X;X;X;X;XR.# + + + + + + f ;X;X;X;X;X;X;X;X;X        ",
"        ;X;X;X;X;X;X;X;X;XN + + + + + + # ' ;X;X;X;X;X;X;X'.x.O.+.l.'.;X;X;X;X;X;X;X) + + + + + + + B ;X;X;X;X;X;X;X;X;X        ",
"        ;X;X;X;X;X;X;X;X;XZ.< & + + + + + A ;X;X;X;X;X..p * + + + + < p } &X;X;X;X;XN # + + + + + 2 F.;X;X;X;X;X;X;X;X;X        ",
"        ;X;X;X;X;X;X;X;X;X;Xv.r + + + + + D ;X;X;X@.7 + + + + + + + + + & 8 p.;X;X;XD + + + + + t b.;X;X;X;X;X;X;X;X;X;X        ",
"        ;X;X;X;X;X;X;X;X;X;X;X'.! 8 & + 5 N.;X;XC # + + + + + + + + + + + + + C ;X;XN.2 # + 8 ) &X&X;X;X;X;X;X;X;X;X;X;X        ",
"        ;X;X;X;X;X;X;X;X;X;X;X;X;X;XZ.l.'.;X-XN + + + + + + + + + + + + + + + + b ;X;X'.x.D.;X;X;X;X;X;X;X;X;X;X;X;X;X;X        ",
"        ;X;X;X;X;X;X;X;X;X;X;X;X;X;X;X;X;X;XR % + + + + + + + + + + + + + + + + & ! ;X;X;X;X;X;X;X;X;X;X;X;X;X;X;X;X;X;X        ",
"        ;X;X;X;X;X;X;X;X;X;X;X;X;X;X;X;X;XF.1 + + + + + + + + + + + + + + + + + # < F.;X;X;X;X;X;X;X;X;X;X;X;X;X;X;X;X;X        ",
"        ;X;X;X;X;X;X;X;X;X;X;X;X;X;X;X;X;XM + + + + + + + + + + + + + + + + + + + + b ;X;X;X;X;X;X;X;X;X;X;X;X;X;X;X;X;X        ",
"        ;X;X;X;X;X;X;X;X;X;X;X;X;X;X;X;X%X2 + + + + + + + + + + + + + + + + + + + + 2 OX;X;X;X;X;X;X;X;X;X;X;X;X;X;X;X;X        ",
"        ;X;X;X;X;X;X;X;X;X;X;X;X;X;X;X;Xy.% + + + + + + + + + + + + + + + + + + + + # u.;X;X;X;X;X;X;X;X;X;X;X;X;X;X;X;X        ",
"        ;X;X;X;X;X;X;X;X;X;X;X;X;X;X;X;XP + + + + + + + + + + + + + + + + + + + + + + U ;X;X;X;X;X;X;X;X;X;X;X;X;X;X;X;X        ",
"        ;X;X;X;X;X;X;X;X;X;X;X;X;X;X;X;XM + + + + + + + + + + + + + + + + + + + + + + N ;X;X;X;X;X;X;X;X;X;X;X;X;X;X;X;X        ",
"        ;X;X;X;X;X;X;X;X;X;X;X;X;X;X;X;XV + + + + + + + + + + + + + + + + + + + + + + V ;X;X;X;X;X;X;X;X;X;X;X;X;X;X;X;X        ",
"        ;X;X;X;X;X;X;X;X;X;X;X;X;X;X;X;X[ + + + + + + + + + + + + + + + + + + + + + + } ;X;X;X;X;X;X;X;X;X;X;X;X;X;X;X;X        ",
"        ;X;X;X;X;X;X;X;X;X;X;X;X;X;X;X;X$Xp + + + + + + + + i N M i + + + + + + + + p &X;X;X;X;X;X;X;X;X;X;X;X;X;X;X;X;X        ",
"        ;X;X;X;X;X;X;X;X;X;X;X;X;X;X;X;X;X|.M < + # + < z l.;X;X;X;Xd.x # + + & & V OX;X;X;X;X;X;X;X;X;X;X;X;X;X;X;X;X;X        ",
"        ;X;X;X;X;X;X;X;X;X;X;X;X;X;X;X;X;X;X;X(.o.R o.(.;X;X;X;X;X;X;X;X(.o.! o.H.;X;X;X;X;X;X;X;X;X;X;X;X;X;X;X;X;X;X;X        ",
"        ;X;X;X;X;X;X;X;X;X;X;X;X;X;X;X;X;X;X;X;X;X;X;X;X;X;X;X;X;X;X;X;X;X;X;X;X;X;X;X;X;X;X;X;X;X;X;X;X;X;X;X;X;X;X;X;X        ",
"        ;X;X;X;X;X;X;X;X;X;X;X;X;X;X;X;X;X;X;X;X;X;X;X;X;X;X;X;X;X;X;X;X;X;X;X;X;X;X;X;X;X;X;X;X;X;X;X;X;X;X;X;X;X;X;X;X        ",
"        ;X;X;X;X;X;X;X;X;X;X;X;X;X;X;X;X;X;X;X;X;X;X;X;X;X;X;X;X;X;X;X;X;X;X;X;X;X;X;X;X;X;X;X;X;X;X;X;X;X;X;X;X;X;X;X;X        ",
"        ;X;X;X;X;X;X;X;X;X;X;X;X;X;X;X;X;X;X;X;X;X;X;X;X;X;X;X;X;X;X;X;X;X;X;X;X;X;X;X;X;X;X;X;X;X;X;X;X;X;X;X;X;X;X;X;X        ",
"        ;X;X;X;X;X;X;X;X;X;X;X;X;X;X;X;X;X;X;X;X;X;X;X;X;X;X;X;X;X;X;X;X;X;X;X;X;X;X;X;X;X;X;X;X;X;X;X;X;X;X;X;X;X;X;X;X        ",
"        ;X;X;X;X;X;X;X;X;X;X;X;X;X;X;X;X;X;X;X;X;X;X;X;X;X;X;X;X;X;X;X;X;X;X;X;X;X;X;X;X;X;X;X;X;X;X;X;X;X;X;X;X;X;X;X;X        ",
"        ;X;X;X;X;X;X;X;X;X;X;X;X;X;X;X;X;X;X;X;X;X;X;X;X;X;X;X;X;X;X;X;X;X;X;X;X;X;X;X;X;X;X;X;X;X;X;X;X;X;X;X;X;X;X;X;X        ",
"        ;X;X;X;X;X;X;X;X;X;X;X;X;X;X;X;X;X;X;X;X;X;X;X;X;X;X;X;X;X;X;X;X;X;X;X;X;X;X;X;X;X;X;X;X;X;X;X;X;X;X;X;X;X;X;X;X        "
};
