/* XPM */
static char *_0ced12eca6f4347a2e6404aa5e77ac0gvGzz95REL4iRZLV[] = {
/* columns rows colors chars-per-pixel */
"64 64 138 2 ",
"   c None",
".  c #383842",
"X  c #3F3F48",
"o  c #4C3946",
"O  c #5A3B49",
"+  c #653C4C",
"@  c #733D4E",
"#  c #40404A",
"$  c #474750",
"%  c #494650",
"&  c #4F4F58",
"*  c #54545D",
"=  c #59525C",
"-  c #585760",
";  c #67676E",
":  c #7D626D",
">  c #6E6E75",
",  c #78787F",
"<  c #823F52",
"1  c #9B3F56",
"2  c #A43E56",
"3  c #E3264C",
"4  c #E4284F",
"5  c #E62C52",
"6  c #E82F54",
"7  c #E83257",
"8  c #EA3459",
"9  c #EC3B5D",
"0  c #F33A5E",
"q  c #EC3D60",
"w  c #F43D61",
"e  c #9D4057",
"r  c #B5445E",
"t  c #BE435E",
"y  c #BA687B",
"u  c #A3707F",
"i  c #C2425D",
"p  c #CB405D",
"a  c #C84662",
"s  c #DA4866",
"d  c #E04263",
"f  c #ED4466",
"g  c #E14867",
"h  c #E64B6A",
"j  c #EF4A6B",
"k  c #F54265",
"l  c #F54668",
"z  c #F64C6D",
"x  c #E0536F",
"c  c #F74F70",
"v  c #E85E7A",
"b  c #F75272",
"n  c #F85574",
"m  c #F65A77",
"M  c #F85877",
"N  c #F75C7A",
"B  c #F95C7A",
"V  c #DD607A",
"C  c #FA617E",
"Z  c #DC778C",
"A  c #F76682",
"S  c #FA6581",
"D  c #F76884",
"F  c #FB6A85",
"G  c #F86788",
"H  c #FC6E89",
"J  c #F7738C",
"K  c #FC728C",
"L  c #F86F92",
"P  c #FD7790",
"I  c #FC7B93",
"U  c #F9799A",
"Y  c #89898F",
"T  c #98808A",
"R  c #8B8B91",
"E  c #95959A",
"W  c #A08F97",
"Q  c #AC909B",
"!  c #A7A7AC",
"~  c #B1B1B5",
"^  c #FE8097",
"/  c #FF869C",
"(  c #FF889E",
")  c #C79AA6",
"_  c #F68DA1",
"`  c #FB8EA3",
"'  c #F98BA0",
"]  c #FA8AAB",
"[  c #FA91A6",
"{  c #FA90AD",
"}  c #FB9DAF",
"|  c #FA9BAE",
" . c #FA9FB0",
".. c #FBA3BC",
"X. c #FBADBC",
"o. c #FBAEBC",
"O. c #FBB0BF",
"+. c #FDA1C1",
"@. c #FCA2C2",
"#. c #FDABCB",
"$. c #FDAECE",
"%. c #FDADCD",
"&. c #FCB7C4",
"*. c #FBB4C1",
"=. c #FCB8C5",
"-. c #FCBAC6",
";. c #FCBBC8",
":. c #FCBECA",
">. c #FCBDC9",
",. c #FDB5D2",
"<. c #FDBCD6",
"1. c #C1C1C4",
"2. c #C4C4C7",
"3. c #FCC2CD",
"4. c #FDC2CD",
"5. c #FDC6D0",
"6. c #FDC7D1",
"7. c #FDD0D9",
"8. c #FECCE1",
"9. c #FDD9E0",
"0. c #E0E0E2",
"q. c #EBEBEC",
"w. c #ECECEC",
"e. c #EBEBEC",
"r. c #F4E0E4",
"t. c #EFEFF0",
"y. c #FEEDF0",
"u. c #FBEFF2",
"i. c #F6F5F6",
"p. c #F1F1F2",
"a. c #FEF2F5",
"s. c #FFF7F8",
"d. c #FFF9FA",
"f. c #FFFAFB",
"g. c #FFFDFE",
"h. c white",
"j. c #FFFEFE",
"k. c #FEFEFE",
/* pixels */
"                                                                                                                                ",
"                                                                                                                                ",
"                                                                                                                                ",
"                                                                                                                                ",
"                                                                                                                                ",
"                                                                                                                                ",
"                                                                                                                                ",
"                                                                                                                                ",
"                                                                                                                                ",
"                                                                                                                                ",
"                                                                                                                                ",
"                                                                                                                                ",
"                                                                                                                                ",
"                                                                                                                                ",
"                                                                                                                                ",
"                                  K K                                                                                           ",
"          H K H q           K K K K K K ^ ( ( (                                                                                 ",
"      K H H F 9 4 5       K H K K K H K K ( ( ( ( (                                                                             ",
"      H F F f 3 3 8 b H K H H H H K H K ^ ( ( ( ( ( ^                                                                           ",
"    F F C B 4 3 4 b F F H H H H H H H H ^ ( ( ( ( ^ P H K                                                                       ",
"    C C C 9 3 3 c F H F F F H F F F H ^ ( ( ( ( ( / H H F H                                                                     ",
"  S C C 9 4 3 n F F F F F F F H F F F ( ( ( ( ( ( ^ F F F H H                                                                   ",
"  B B B q 3 7 b S F F F S F F S F F H ^ ( ( ( ( ( H F F F F F K /                                                               ",
"    B f 4 3 j C S S C S S S F S C C P ( ( ( ( ( ( K C F F C F / ( ( ( ( ' K         F     '                                     ",
"      z 4 4 f N C S S C S S C S C C H P ( ( ( ( I C F F F C K / ( ( ( ( ^ H S S S S S K ' / ' /                                 ",
"          q M C C S C C C C C S C F C H ( ( ( / C C C C C C ^ ( ( ( ( ( / S S S S S F I / ' / ' ( S S                           ",
"            C C C C C C C C C C C C C C P H K C C C C C C C / ( ( ( ( ( I C C S S C S / ' / ' / ( F S                           ",
"            B C B B C B B C B C C C C C C C C C C C C C C F ^ ( ( ( ( ( S C C C C S I / / ' / ' F C S C C                       ",
"          B B B B B B B B B B B B B B B C B C N C C C B B P ( ( ( ( ( / C C C B C S / ' ( ( ( ( K C C C C C                     ",
"            M M B B M B B B B B B B B B B B N N B B B C C C ( ( ( ( ( S B B B B B S / / ( ( ( I F B B B C B B                   ",
"            B M M M M M M M M M M M M B B F C C M B M M C C / ( ( ( / F B B B B B I ( ( ( ( ' ^ C B B B B B B B                 ",
"            n M M M M n M M M n M M I ( r.a.(  .M M M M n M I I ( ( C B M M M B n S ( ( ( ( ( K M M B B B B B B                 ",
"              n n n n n n n n n n N Z ; E i.j.y.F C n M M n n C F M n M n M M M M C H ( ( ( ( M M M M M M M M M                 ",
"              b b n b n n n n n v u - . $ R t.j.-.F n n n n n n M b n n n M n n M M M ^ K K F n M n M M n M M M n 4 3 9 M       ",
"              b c b n b c b n b m y . . . . e.j.j.6.n b n b b n n n n n n n n n M n n b M M n n n n n n n n n n c 7 3 0 M C     ",
"              b c c c c c c c c b : X . . & ~ j.f.;.b b c b b c b b c n b n c c b b b b n b b n b b n n b n b n z 3 3 c C S F   ",
"                  c c c c c c B @.Q * & * ! j.j.j.C b z b b c c c c c b (  .^ o.D b b b c c c c b b b b b b b b b 4 3 7 b F F   ",
"                    z z c z ] #.%.<.! e.1.j.j.j.;.H b z z b c c c c M W 1.0.f.i.3.( c c c c c c c c c c b b c b z 8 4 q B F K   ",
"                      z z z G $.%.,.{ j.j.f.j.J b z z s h a j z z c V = # , R j.j.&.C z c c z c c c c c z b z b k 3 3 5 S F H   ",
"                        l l c H #.U N I m o.X.n z z t + . O r s z x $ . . . > p.j.5.C z z z z z z z z z z z z z l 3 3 l C H K   ",
"                          l l z l l z l l l l z z l @ . . . e s l z . . . . Y i.j.j.b l z z z z l z z z z z z z 8 4 3 m D F K   ",
"                            l l l l l l l l l l l k e . . . O i l n T > . . ~ t.j.d.I z l z l l z z z z l l l z 5 3 6 z F K     ",
"                                k l k k l k k k k f t o . . 1 k k D ) 2.Y > j.j.k...c l z l l l l l z J *.l l l     z S         ",
"                                    k k k k k k k k k 2 p i d k k k z u.e.j.j.k.7.[ k k f k k l l m I ;.| M l                   ",
"                                        w k w k k w k k w k k k k k k l | 7.d.8...D k k k k k l n [ 6.-.N k                     ",
"                                          w k w w k k w w k w k k k k k k b @.%.%.%.k k w m C | N A J c k k                     ",
"                                                w w 0 w w w w w 0 k 0 0 w k b %.@...U w z ' :.o.G w k w                         ",
"                                                  w   w 0 0 0 w 0 0 0 k 0 w w A L L w w m N U J w w w                           ",
"                                                            0 0 0 0 0 0 0 0 0 0 0 0 0 w w 0 w 0 w w                             ",
"                                                                        0 0   0 0 0 0 0 0 0 0                                   ",
"                                                                                                                                ",
"                                                                                                                                ",
"                                                                                                                                ",
"                                                                                                                                ",
"                                                                                                                                ",
"                                                                                                                                ",
"                                                                                                                                ",
"                                                                                                                                ",
"                                                                                                                                ",
"                                                                                                                                ",
"                                                                                                                                ",
"                                                                                                                                ",
"                                                                                                                                ",
"                                                                                                                                "
};
