/* XPM */
static char *_1710415be6f4f0ec399d8dc21a9d31aZeOttzB8HmKe86qC[] = {
/* columns rows colors chars-per-pixel */
"64 64 149 2 ",
"   c None",
".  c #393842",
"X  c #3F3F48",
"o  c #433944",
"O  c #4C3946",
"+  c #5D3C4A",
"@  c #44444D",
"#  c #474750",
"$  c #53535C",
"%  c #585760",
"&  c #6D6D74",
"*  c #78787F",
"=  c #823F52",
"-  c #963F55",
";  c #9B3F56",
":  c #E3254C",
">  c #E4284F",
",  c #E62C52",
"<  c #E82F54",
"1  c #E73055",
"2  c #E83257",
"3  c #E93559",
"4  c #EC3A5D",
"5  c #F33A5E",
"6  c #EE3E62",
"7  c #F43D61",
"8  c #B5445E",
"9  c #BF455F",
"0  c #945D6D",
"q  c #BA5D72",
"w  c #826975",
"e  c #BA687B",
"r  c #A3707F",
"t  c #C2435E",
"y  c #CB405D",
"u  c #C84662",
"i  c #D74563",
"p  c #DA4866",
"a  c #E04263",
"s  c #EF4365",
"d  c #E14867",
"f  c #E64B6A",
"g  c #EF4A6B",
"h  c #F44265",
"j  c #F54668",
"k  c #F64C6D",
"l  c #F74F70",
"z  c #F75272",
"x  c #F85574",
"c  c #F65A77",
"v  c #F85877",
"b  c #F75C7A",
"n  c #F95C7A",
"m  c #F6627E",
"M  c #FA617E",
"N  c #977E89",
"B  c #B37685",
"V  c #F65E81",
"C  c #F76783",
"Z  c #FA6581",
"A  c #F76C87",
"S  c #FB6A85",
"D  c #FC6E89",
"F  c #FC738C",
"G  c #F86F92",
"H  c #FE7790",
"J  c #F97E96",
"K  c #FD7C94",
"L  c #FE7D94",
"P  c #FE7E96",
"I  c #FC7992",
"U  c #FA7B9C",
"Y  c #8A8A90",
"T  c #919196",
"R  c #95959A",
"E  c #AC909B",
"W  c #A7A7AC",
"Q  c #B0B0B4",
"!  c #B2B2B6",
"~  c #B6B6BA",
"^  c #B5B5B8",
"/  c #C28D9A",
"(  c #FE8097",
")  c #FE8299",
"_  c #FF839A",
"`  c #FE8198",
"'  c #FE849B",
"]  c #F9879D",
"[  c #FF859D",
"{  c #FF869C",
"}  c #FF869D",
"|  c #FF879D",
" . c #FE869C",
".. c #FF879E",
"X. c #F98299",
"o. c #FF889E",
"O. c #FF889F",
"+. c #C79AA6",
"@. c #F98AA0",
"#. c #FB8EA3",
"$. c #FB8DA2",
"%. c #FA91A6",
"&. c #FA98AB",
"*. c #F999AC",
"=. c #FB9DAF",
"-. c #FA9BAD",
";. c #FA9FB0",
":. c #FB9BBB",
">. c #D0B0B9",
",. c #FBA6B6",
"<. c #FBAAB9",
"1. c #FBAFBD",
"2. c #FBACBB",
"3. c #FCA2C3",
"4. c #FBAAC3",
"5. c #FDA7C8",
"6. c #FDACCC",
"7. c #FCB3C0",
"8. c #FCB7C4",
"9. c #FCB6C4",
"0. c #FCB8C5",
"q. c #FCB8C5",
"w. c #FDBCD6",
"e. c #C1C1C4",
"r. c #C4C4C7",
"t. c #C9C9CC",
"y. c #D5D5D7",
"u. c #FDC7D1",
"i. c #FDC5D0",
"p. c #FDC6D0",
"a. c #FDC7DB",
"s. c #FDD2DB",
"d. c #DEDEE0",
"f. c #FDD3E4",
"g. c #FDDEE4",
"h. c #FDD9E0",
"j. c #EAEAEB",
"k. c #EBEBEC",
"l. c #FEE5EA",
"z. c #EFEFF0",
"x. c #FBEFF2",
"c. c #F5F5F6",
"v. c #FAF0F2",
"b. c #FEF2F5",
"n. c #FEF2F5",
"m. c #FFF8F9",
"M. c white",
"N. c #FFFCFC",
"B. c #FFFEFE",
/* pixels */
"                                                                                                                                ",
"                                                                                                                                ",
"                                                                                                                                ",
"                                                                                                                                ",
"                                                                                                                                ",
"                                                                                                                                ",
"                                                                                                                                ",
"                                                                                                                                ",
"                                                                                                                                ",
"                                                                                                                                ",
"                                                                                                                                ",
"                                                                                                                                ",
"                                                                                                                                ",
"                                                                                                                                ",
"                                                                                                                                ",
"                                                                                                                                ",
"                                                                                      F S   M M M                               ",
"                                                                              o.o.o.o.' S M M M M M                   Z         ",
"                                                                              o.o.o.o.| M M M M M n n n       , 4 n M S S       ",
"                                                                          S { o.o.o.o.o.D M M n n n n n n n 6 : > h n Z S D     ",
"                                                                        S Z P o.o.o.o.o.F m n n n n n v x n k 1 : > z Z S D     ",
"                                                                  S S Z Z S F ) o.o.o.o.L M n n n n x n x z x k > : 6 m Z S F   ",
"                                                              o.F D Z Z M M D o.o.o.o.o.` n n n x v x x x z z z 6 : > k n S D   ",
"                                      o.o.F         D ( o.o.o.o.( F Z M M M Z o.o.o.o.o.| M x c x x x x x z z z l , : 3 j Z D   ",
"                              o.o.o.o.o.o.F D D S S S L o.o.o.o.' I M M M M M ) | o.o.o.o.( x x x x z x z z z l l 4 : > 4 Z S   ",
"                          F F o.o.o.o.o.o.H D S S S S F o.o.o.o.o.) Z M M n n Z I o.o.o.| S x x x z z z z l l k k h : : k C     ",
"                      F F F F ( o.o.o.o.o.L S S M S M D ' o.o.o.o.o.D M n n n n M I | ' H n z x z z z l k l k k k j , , k       ",
"                    F F F D D I o.o.o.o.| ' D S S S S M P o.o.o.o.{ F n n n v n x n n M x x x l z z l l k k k k k j             ",
"                  F F D D D D D ' o.o.o.o.o.F S S M M Z F o.o.o.o.' P n n n v x x x x x x l l l l l k k k j k j j j             ",
"                  F F F F D D S P o.o.o.o.o.I Z M M M M D o.o.o.o.{ L v v x v x x x x z l l l l l k k k k k k H c j j           ",
"                  F D D D D D S F o.o.o.o.o.P M M M M n M ' o.o.o.o.S v v x x x z z z l l l k k k k j k j j k u.&.j             ",
"                F D D D S S S S F { o.o.o.o.F M M M M M n S ' | ' D v x x x z z z M M n l l l k k k j j j j 7.u.@.h             ",
"      D c ,   z D D S S S S S Z M I o.o.o.F M M M n n n v n M Z M S x x x x z x J g.b.m.9.A k j j j j j j c q.u.l h             ",
"    F D 4 : 3 c S S S S S Z Z Z Z S D H F M M n n n n n v v n v v x x z z z x &.x.y.M.M.M.u.z j j j j j j x ,.A j 7             ",
"  F D M , : 4 C S S Z S Z Z Z M M M M M M M n n n n n v v v x x z x z z z z H e.* @ & j.M.N.J j j j j h j m k h 7               ",
"F F A c , : l S S S S Z Z Z Z Z M M M n M n n n v v v v v x x z x z z z k l B @ . . . ~ M.M.;.j h h h S 7.1.h 7 7               ",
"D S Z v > : 1 S Z S Z Z M Z M M M M n n n v n S %.-.D M S z x z z z z z k z 0 . . . . Q M.M.%.j h h h ] <.u.m 7 7               ",
"  D S M 4 : 3 Z Z Z Z M Z M M n M M n n n n $.b.M.M.M.8.p.x z z z k k k k k q . . . & z.M.b.s.A h 7 7 j %.J h 5                 ",
"  S M M 4 : 1 M Z Z M Z M M M n n n c n v $.>.R ~ k.M.M.m.X.l z k k g 8 d j g N # X Y d.M.N.a.5.:.U 7 7 h 7 5                   ",
"  M M n 5 > , M M M M n M n n n n n v v m / $ . . T M.M.b.9.z k k f u + = g j x +.r.x.N.h.4.6.6.3.G 7 7 5 5                     ",
"    n v h : > c Z n n M n n n n v v x v n $ . . . . ^ M.M.b.A k p o . . o t h j n X.j z k V :.5.G 5 5 5                         ",
"        k <   n M n n n n v v v x v x x x r X . . . W M.M.M.z k u . . . . ; h h h h h h 7 7 7 7 5 5 5                           ",
"                  n n n n n v v v x x x z e w o . $ t.M.M.-.k k i o . . . i h h h h 7 7 7 5 5 5 5                               ",
"                  n v v v v v x x x x z z v I E W j.M.m.2.x j j j - O + y h 7 h 7 7 7 5 5 5 5                                   ",
"                    v v v x x x z z z z l A :.w.f.l.s.#.l j j j j s h s 7 h h 7 7 5 7 5 5 5 5                                   ",
"                      x x x z z z z l l z 6.6.6.5.V k k j j j h h 7 h 7 7 7 7 7 7 5 5 5                                         ",
"                        x z z z z l l k c :.6.6.U j j j h j h h h h h h 7 7 7 5 5 5                                             ",
"                          z z l l k k k k V D k n j j j h h h h h 7 7 7 7 5 5                                                   ",
"                              k   k k k k j k j j j h h h h 7 7 7 7 7 7                                                         ",
"                                      j k k j j j h h h h h                                                                     ",
"                                                                                                                                ",
"                                                                                                                                ",
"                                                                                                                                ",
"                                                                                                                                ",
"                                                                                                                                ",
"                                                                                                                                ",
"                                                                                                                                ",
"                                                                                                                                ",
"                                                                                                                                ",
"                                                                                                                                ",
"                                                                                                                                ",
"                                                                                                                                ",
"                                                                                                                                ",
"                                                                                                                                "
};
