/* XPM */
static char *_29c1a959d664d3ec9f6987b2cde32e4sCnqGpSR8FaEefIT[] = {
/* columns rows colors chars-per-pixel */
"64 64 137 2 ",
"   c None",
".  c #393842",
"X  c #4C3946",
"o  c #5B3B49",
"O  c #653C4C",
"+  c #733E4F",
"@  c #42424B",
"#  c #494650",
"$  c #4F4F58",
"%  c #55555D",
"&  c #59525C",
"*  c #67676E",
"=  c #6D6D74",
"-  c #78787F",
";  c #823F52",
":  c #8A3F53",
">  c #9B3F56",
",  c #A43E56",
"<  c #E3254C",
"1  c #E4284F",
"2  c #E62C52",
"3  c #E93156",
"4  c #EA3559",
"5  c #EC3A5D",
"6  c #F33A5F",
"7  c #EE3E61",
"8  c #F43D61",
"9  c #9D4057",
"0  c #BF455F",
"q  c #945D6D",
"w  c #BA687B",
"e  c #A3707F",
"r  c #C2405C",
"t  c #C94763",
"y  c #D74563",
"u  c #DA4866",
"i  c #EE4466",
"p  c #E14867",
"a  c #EC496A",
"s  c #F44265",
"d  c #F54668",
"f  c #F64C6D",
"g  c #E0536F",
"h  c #F74F70",
"j  c #E85E7A",
"k  c #F75272",
"l  c #F85574",
"z  c #F65977",
"x  c #F85877",
"c  c #F75C7B",
"v  c #F95C7A",
"b  c #DD607A",
"n  c #F6627E",
"m  c #FA617E",
"M  c #977E89",
"N  c #F65E81",
"B  c #DC778C",
"V  c #F76581",
"C  c #FA6581",
"Z  c #F76884",
"A  c #FB6A85",
"S  c #FC6E88",
"D  c #F7738C",
"F  c #FC738C",
"G  c #F86F92",
"H  c #FE7790",
"J  c #FC7B94",
"K  c #89898F",
"L  c #98808A",
"P  c #8A8A91",
"I  c #919196",
"U  c #95959A",
"Y  c #A08F97",
"T  c #AC909B",
"R  c #A7A7AC",
"E  c #B0B0B4",
"W  c #B6B6B9",
"Q  c #FE8097",
"!  c #FF839A",
"~  c #FE8299",
"^  c #FF859B",
"/  c #FF879D",
"(  c #FF869C",
")  c #FE859D",
"_  c #FD859C",
"`  c #FF889E",
"'  c #FF889F",
"]  c #FF889E",
"[  c #C79AA6",
"{  c #FA84A5",
"}  c #F68DA1",
"|  c #F98BA0",
" . c #FB8EA3",
".. c #FA8AAB",
"X. c #FA92A7",
"o. c #FA90AD",
"O. c #FA9DAF",
"+. c #FC96B7",
"@. c #FA9FB0",
"#. c #FB9CBD",
"$. c #FC9BBB",
"%. c #D0B0B9",
"&. c #FBAAB9",
"*. c #FBAEBD",
"=. c #FBACBB",
"-. c #FCA3C3",
";. c #FCAAC2",
":. c #FDA7C8",
">. c #FDAECE",
",. c #FDABCB",
"<. c #FBB4C1",
"1. c #FCB6C4",
"2. c #FCB9C6",
"3. c #FCBDC9",
"4. c #FDB5D2",
"5. c #C3C3C6",
"6. c #D5D5D7",
"7. c #FDC2CD",
"8. c #E9CED9",
"9. c #FCC7D1",
"0. c #FDC6D0",
"q. c #FDC7DB",
"w. c #FDD0D9",
"e. c #DEDEE0",
"r. c #E0E0E2",
"t. c #EAEAEB",
"y. c #EBEBEC",
"u. c #F4E0E4",
"i. c #FEE6EA",
"p. c #EFEFF0",
"a. c #F2F2F3",
"s. c #F5F5F6",
"d. c #FDF1F4",
"f. c #FFF7F8",
"g. c #FFFBFD",
"h. c white",
"j. c #FFFEFF",
/* pixels */
"                                                                                                                                ",
"                                                                                                                                ",
"                                                                                                                                ",
"                                                                                                                                ",
"                                                                                                                                ",
"                                                                                                                                ",
"                                                                                                                                ",
"                                                                                                      C                         ",
"                                                                                                  l v n A S S                   ",
"                                                                                                4 5 v n m A S F                 ",
"                                                                                                2 1 < f k m A A F               ",
"                                                                                m m m v v v   8 4 < < < 7 f C A S               ",
"                                                                            C C C m v v v v x l f f 1 < < 2 d C A S             ",
"                                                                        ! A C m m v v v v x x l l k 7 4 < < 1 5 C               ",
"                                                                      ` ( J C m m m v v x x x l k k k s 5 2 < 2 m               ",
"                                                                    ` ` ` ` S m v v v x x x l l k k h h f 4 < 2                 ",
"                                                                  ` ` ` ` ` ` H m x v v l l l l k k h h f s i 3                 ",
"                                                                  ^ ` / ` ` ` J A m x x x l k k k h f f f f d                   ",
"                                                                S J / / ` ` ` ` ~ m l l l l k h h f f f f d d d                 ",
"                                                              C C A H ` ` ` ` ` / J v l l l k h h f f f d c d s                 ",
"                                                            C A A C S J / ` ` ` / / x k l k h h h h d h F *.c s                 ",
"                                                            A C m m m C / ] ` ` ] H m l k h h h f f f d h 3.] s s               ",
"                                                          A C C m m m m m ] / / / F l k h h f f f d f d J 1.2.s                 ",
"                                                        ` Q C C m m m v v m J S v k k k h h h f d f d d c X.D d 8               ",
"                                                      ` ` ` F C m m m v v x x v l l k k k f f f d f d d l V f s                 ",
"                                                    ` ` ` ` ` C m m v v x x l l l k k f h f f d f d d s f n Z 8 8               ",
"                                                  ( ` ` ` ` ` ` S v v v v l l l l k c h v f f f d s s s c *.n 8 8               ",
"                                              A F J ( ` ` ` ` ` F C v x l l l l z Z 7.} 9.9.h f d d s s =.7.D s                 ",
"                                      F   S A A A A ^ ` ` ` ` ` ` J v x l l l l J *.j.j.j.j.f.h d s s s _ X.8 6                 ",
"                                  ` ` J S S A A C C S J ` ` ` ` ` ^ m x l l l h d.6.j.a.t.j.j.@.k s s 8 8 s 6 6                 ",
"                              ` ` ` ` ! H S A A A C C F Q ` ` ` ` ` A l l l h } e.- @ P W j.j.w.Z { #.s 8 8 6                   ",
"                            ` ` ` ` ` ` ( S A C C C m C A ^ ` ` ` A x l k h h H Y @ . . % E j.d.q.:.-.h 8 6                     ",
"                            / / ` ` ` ` / Q A A m C m m m A ` ! C m l l k k h x & . . . = s.j.j.>.>.-.G 6 6                     ",
"                          F H / ` ` ` ` ` / H C C m m v v v x m z k l k k h h b q @ . @ I 6.j.;.-.+.:.7 6 6                     ",
"                        F F F Q / ` ` ` ` ` ` J C m m v v v x x x l l l h h h f g M M = 5.j.O.f N 8 6 6 6                       ",
"                      F F F S S ^ ` ` ` ` ` ` F m m m v v x z l l l k h h f f f f f l [ _ d k 7 8 8 6 6                         ",
"                      H F F S S S Q / ` ` ` ` F m m v v v x x l l k k h h l a p a d d d f s 8 8 8 6 6                           ",
"                      F F F S S C H ~ / ` ` ^ D m v v x x x C l k k h h h r X 9 : s s s s s 8 8 8 6 6                           ",
"                      F S S S A A A S J J ^ H m v v v C O.A O.9.l k h h r + . . o > s s 8 8 8 8 6 6                             ",
"                    F F S S S A A A m A C m m m v c A  .i.j.j.j.7.~ k k u O . . . . s s s 8 8 6 6                               ",
"                      F S S S A A m A m m m m m x v D d.j.p.j.j.j.*.S f 0 + . . o r i 8 8 8 6 6                                 ",
"                    F S S S m A C A m m m m v v v x u.U W P P j.j.j.3.f d y 9 X , i s 8 8 8 6                                   ",
"                    S S A A A A C A m m m v v v x J %.* . . $ R j.j.D f d d i s s s 8 8 8 6                                     ",
"              l 2 < 4 S A A m A m m m m m v v v l N B . . . . = j.j.=.k d s d d s s 8 8 6                                       ",
"            F C 5 < 5 A A A A A m m m v v v v l l l M . . . % 5.j.g.f d d d d 8 8 8 8                                           ",
"          F F S 3 < < k A A m m m m m m v v v x l l z w . % R y.j.z d d d s s s 8 8 8                                           ",
"            S C a 1 < l m A A m m m m v v v x l l l l l J T 8.o.J f d d s s s 8 8                                               ",
"          F S A z 1 < 4 k m m m m m v v x v x l l l h h Z ;.4.:.z f d d s s 8 8 8                                               ",
"            S S z 5 < < f n m m m v v v x x x l l k k h ,.>.>.:.d d d d s s 8                                                   ",
"            S C C l < < 2 i m m v v v v x x l l k k h h ..#.+.v d d s s s                                                       ",
"              A m v 5 2 < 7 z m v v v v x l l k l h h h f v f f d s s                                                           ",
"              C m v l 3 2       v v x x l l l k h h f f f d f d d                                                               ",
"                C v   f           v l l l l k k h h f f f d d                                                                   ",
"                                        l k h k h f h   f                                                                       ",
"                                                                                                                                ",
"                                                                                                                                ",
"                                                                                                                                ",
"                                                                                                                                ",
"                                                                                                                                ",
"                                                                                                                                ",
"                                                                                                                                ",
"                                                                                                                                ",
"                                                                                                                                ",
"                                                                                                                                "
};
