/* XPM */
static char *_371835b51e546f0ae8d813e60f0130bgrILOTemSKI5Ep9S[] = {
/* columns rows colors chars-per-pixel */
"64 64 141 2 ",
"   c None",
".  c #393842",
"X  c #3F3F48",
"o  c #473945",
"O  c #4C3946",
"+  c #5B3B49",
"@  c #653C4C",
"#  c #733E4F",
"$  c #43434C",
"%  c #474750",
"&  c #4F4F58",
"*  c #54545C",
"=  c #585760",
"-  c #67676E",
";  c #7D626D",
":  c #6E6E75",
">  c #78787F",
",  c #823F52",
"<  c #9B3F56",
"1  c #A43E56",
"2  c #E3264D",
"3  c #E4284E",
"4  c #E62D53",
"5  c #E82F54",
"6  c #E73055",
"7  c #E93257",
"8  c #EA3559",
"9  c #EC3A5E",
"0  c #F33A5E",
"q  c #EC3D60",
"w  c #F43D61",
"e  c #9D4057",
"r  c #B5445E",
"t  c #BE435E",
"y  c #945D6D",
"u  c #826975",
"i  c #A3707F",
"p  c #C2435E",
"a  c #CB405D",
"s  c #C84662",
"d  c #D74563",
"f  c #E04263",
"g  c #EF4466",
"h  c #EF4B6C",
"j  c #F44265",
"k  c #F54668",
"l  c #F64C6D",
"z  c #E0536F",
"x  c #F74F71",
"c  c #E85E7A",
"v  c #F75272",
"b  c #F85574",
"n  c #F65977",
"m  c #F85877",
"M  c #F75C7B",
"N  c #F95C7A",
"B  c #DD607A",
"V  c #FA617E",
"C  c #977E89",
"Z  c #DC778C",
"A  c #F76682",
"S  c #FA6581",
"D  c #F76884",
"F  c #FB6A85",
"G  c #FC6E89",
"H  c #F7738C",
"J  c #FD728C",
"K  c #F77793",
"L  c #FD7790",
"P  c #FD7B93",
"I  c #FA7B9C",
"U  c #98808A",
"Y  c #8A8A91",
"T  c #919196",
"R  c #95959A",
"E  c #A08F97",
"W  c #AC909B",
"Q  c #B2B2B6",
"!  c #FE8097",
"~  c #FE859C",
"^  c #FF889E",
"/  c #C79AA6",
"(  c #F68DA1",
")  c #FA8CA2",
"_  c #FA8AAB",
"`  c #FA91A6",
"'  c #FA90AD",
"]  c #FA9AAD",
"[  c #FB9EAF",
"{  c #FA98AB",
"}  c #FC96B7",
"|  c #FA9FB0",
" . c #FB9BBB",
".. c #D0B0B9",
"X. c #FBA6B6",
"o. c #FBA3BC",
"O. c #FBACBB",
"+. c #FBACBB",
"@. c #FBB0BF",
"#. c #FBB0BF",
"$. c #FDA1C1",
"%. c #FCA0C1",
"&. c #FBAAC3",
"*. c #FDA9C9",
"=. c #FDABCB",
"-. c #FDAECE",
";. c #FDACCC",
":. c #FCB6C4",
">. c #FCB3C0",
",. c #FCB8C5",
"<. c #FCBAC6",
"1. c #FCBBC8",
"2. c #FCBDC9",
"3. c #C1C1C4",
"4. c #C9C9CC",
"5. c #FCC2CD",
"6. c #FDC6D0",
"7. c #FDC6D0",
"8. c #FDD3DC",
"9. c #FDD0D9",
"0. c #DEDEE0",
"q. c #FECCE1",
"w. c #FDD3E4",
"e. c #FDDCE2",
"r. c #E0E0E2",
"t. c #EBEBEC",
"y. c #ECECED",
"u. c #EAEAEB",
"i. c #F4E0E4",
"p. c #FEE6EA",
"a. c #FBEFF2",
"s. c #F6F6F7",
"d. c #F4F4F5",
"f. c #FFF3F5",
"g. c #FEF3F6",
"h. c #FEF2F5",
"j. c #FFF7F8",
"k. c #FFFAFB",
"l. c #FFFDFE",
"z. c white",
"x. c #FFFEFE",
/* pixels */
"                                                                                                                                ",
"                                                                                                                                ",
"                                                                                                                                ",
"                                                                                                                                ",
"                                                                                                                                ",
"                                                                                                                                ",
"                                                                                                                                ",
"                                                                                                                                ",
"                                                                                                                                ",
"                    J                                                                                                           ",
"              J G G F F n q                                                                                                     ",
"            F F F F S b 2 6                                                                                                     ",
"            S S S M g 4 2 2       J J J J J J                                                                                   ",
"          V V V n 3 2 2 9 n S G F J J J J J J J L P ^                                                                           ",
"          N M n 9 2 2 6 F G F G J F G J J J J J J ~ ^ ^                                                                         ",
"          m b 9 2 2 8 b F F F F G F F F J F J J ! ^ ^ ^ ^                                                                       ",
"            8 2 2 h V F V F F S F F F F F F J ~ ^ ^ ^ ^ ^ ^                                                                     ",
"            4 3 2 V V F V F F F V F F F F F ! ^ ^ ^ ^ ^ ^ ! J                                                                   ",
"                w V V V V V F F F F F S S F ~ ^ ^ ^ ^ ^ ^ J J                                                                   ",
"                N V V V F V V V V F V F F G ^ ^ ^ ^ ^ ^ ^ F G F                                                                 ",
"                V N V V V V V V V V V S F P ^ ^ ^ ^ ^ ! J F F F F                                                               ",
"              N N N N N N V V V V V V V S L ^ ^ ^ ^ ~ J S F F F F F                                                             ",
"              N N N N N N V V N V V V V V F ^ ^ ^ ^ P F S F F F S J ~                                                           ",
"              m m m m N m N N N N V V V V V J J L J V V V F S S F ~ ^ ^ ^                                                       ",
"              b b m N b N m N N N N N N V V V V V V V V V V S S F ^ ^ ^ ^ ^ ^                                                   ",
"              b b m b m m m m m N N N N N N N N V V V V V V V S ! ^ ^ ^ ^ ^ ^ F                                                 ",
"              v b v b b b b m b m m m N n N N N N N N V N V F ! ^ ^ ^ ^ ^ ~ J S S S F S F                                       ",
"              v v b v b b b b b b m V ) ^ H N N N N N M V V L ^ ^ ^ ^ ^ ^ L S S S S S S G ~ ^                                   ",
"              v x x v v b v b b b N Z ..i.f.) S m m N N N S ~ ^ ^ ^ ^ ^ ~ F V V S V S F P ^ ^ ^ ^                               ",
"                x x x x v v x b c i * - R s.p.[ m m m N N S ^ ^ ^ ^ ^ ^ F V V V V V V L ^ ^ ^ ^ ^                               ",
"                  l x x x v v x u . . . . Y z.z.| V n m m V L ^ ^ ^ ^ P V N N V V V S ^ ^ ^ ^ ^ ^ P S S                         ",
"                  x l l l v N F ; X . . . T z.z.,.F b b m m S P ^ ^ P S N N N N N V J ^ ^ ^ ^ ^ ^ S S S                         ",
"                  l l l m _ ;.$.W * . . & Q x.x.6.V b b b b m V S F V m m N N N N V ~ ^ ^ ^ ^ ^ ! V V V V                       ",
"                    k l S } -.-.w.s.t.4.t.z.z.j.! v v v v v b b b b n b m m m m V P ^ ^ ^ ^ ^ P V V V V V V                     ",
"                      l l F *.*.' p.z.z.z.z.f.#.V v x x v v v v b b b b b m b m V L ^ ^ ^ ^ ! F N N V V V V                     ",
"                      k k l N I M K 9.k.z.z.5.G v v x x x v x v b b v b b b b m V G ^ ^ ^ ^ L V m V N V N V                     ",
"                        k k k k l l n #.#.] v l l l l x l v v x v v v b b b b b b N ! ^ ^ ~ V N N m V m V N                     ",
"                          k j k k k k k k k k k t @ # a h x x x x H ( ] P n v b v b b m N N b b n m m N m m V                   ",
"                            j j k j k k k k k d # . . % t l l l B E 3.r.e.O.S v v v v b v b b b b m m m m N m                   ",
"                              j j k j j j k j 1 O . . o # l l z y $ X > z.f.5.v v v v v v v b b b b m b b m m                   ",
"                                w j j j j j j t O . . + p k h C . . . . d.z.z.M v x v l x v v v x v b b b b v 8 3 9 b           ",
"                                  w w j j j j j 1 + . e j k n C % . . . u.z.z.D l l v l x x x x x v v v v b l 4 3 9 N           ",
"                                    w w w w j j j a d j k k A / : . . * s.z.z.D l l l l x x x x x v v v v v l 3 2 j N S         ",
"                                        w w w w w w w j j j l ! a.0.s.z.z.z.j.k k l l l k l l x l x v l v l 8 2 7 b V F         ",
"                                          w w w w w w j w j j k #.z.z.z.z.j.| k k k l l k l l l l l x l l j 6 2 9 V S F         ",
"                                            0 w w w w w w j w j v e.k.k.9.( b k k k k k k k k l l l l l l 9 2 2 l S S F         ",
"                                              0 w 0 w w w w w j w K &.q.o.G j j k j j k l k k x l l l l l 3 2 2 M S F J         ",
"                                                    0 0 0 w 0 w w v  .-.-. .j j j j j j j N :.5.#.k k k g 2 2 9 S F J           ",
"                                                        0 0 0 0 w w A *.%.I j j n D M k b ` 6.2.] k k k   4 5 l F H J           ",
"                                                          0 0 0 w w w x G x j l ~ +.>.M A X.<.^ N k k       l V F J             ",
"                                                                  0 0 0 q w w j M K H j j w j j j                               ",
"                                                                        0 0 0 0 w q j w w w w                                   ",
"                                                                              0 0 0 0 w w                                       ",
"                                                                                                                                ",
"                                                                                                                                ",
"                                                                                                                                ",
"                                                                                                                                ",
"                                                                                                                                ",
"                                                                                                                                ",
"                                                                                                                                ",
"                                                                                                                                ",
"                                                                                                                                ",
"                                                                                                                                ",
"                                                                                                                                "
};
