/* XPM */
static char *result[] = {
/* columns rows colors chars-per-pixel */
"64 64 125 2 ",
"   c None",
".  c #2D3038",
"X  c #31333A",
"o  c #38393A",
"O  c #7F4537",
"+  c #74463F",
"@  c #7B453A",
"#  c #2C3E50",
"$  c #2F4154",
"%  c #344250",
"&  c #3B4450",
"*  c #324559",
"=  c #35495D",
"-  c #5A474E",
";  c #5D4A4F",
":  c #5B5441",
">  c #434751",
",  c #444951",
"<  c #565051",
"1  c #674646",
"2  c #6A4745",
"3  c #61464A",
"4  c #664E4F",
"5  c #714540",
"6  c #67524C",
"7  c #6A514E",
"8  c #76564F",
"9  c #635551",
"0  c #745D51",
"q  c #7D6151",
"w  c #804537",
"e  c #814638",
"r  c #854A39",
"t  c #8A4D3B",
"y  c #8E513C",
"u  c #93553E",
"i  c #864F42",
"p  c #875346",
"a  c #8F5845",
"s  c #815D4F",
"d  c #945740",
"f  c #975C44",
"g  c #9C5C41",
"h  c #915E4A",
"j  c #865F50",
"k  c #8E5E51",
"l  c #A05F43",
"z  c #8C654F",
"x  c #92634E",
"c  c #8A6551",
"v  c #946550",
"b  c #966C52",
"n  c #9B6950",
"m  c #93675C",
"M  c #A46345",
"N  c #AA6746",
"B  c #AC6947",
"V  c #A1674C",
"C  c #A66E4F",
"Z  c #A96F4D",
"A  c #B36E49",
"S  c #B6714B",
"D  c #BB754C",
"F  c #BF784D",
"G  c #A26D51",
"H  c #A17052",
"J  c #AA7251",
"K  c #B27651",
"L  c #B77A52",
"P  c #BB7B52",
"I  c #976F64",
"U  c #C27B4E",
"Y  c #C47D51",
"T  c #C87F50",
"R  c #99854D",
"E  c #A58E50",
"W  c #A28077",
"Q  c #AD8472",
"!  c #A5857C",
"~  c #CB8252",
"^  c #CC8859",
"/  c #D29458",
"(  c #CDAA57",
")  c #CDAF58",
"_  c #D4B359",
"`  c #DBB95B",
"'  c #E3BF5D",
"]  c #D3956C",
"[  c #D29F6C",
"{  c #C6B071",
"}  c #E4C15F",
"|  c #E3C162",
" . c #E1C36A",
".. c #E0C472",
"X. c #8A8C91",
"o. c #A98E85",
"O. c #AE958D",
"+. c #B4A099",
"@. c #BBA499",
"#. c #B7A6A0",
"$. c #BAABA5",
"%. c #BBADA8",
"&. c #BEB2AC",
"*. c #CFA482",
"=. c #D5AD83",
"-. c #D2BDA3",
";. c #C0B6B1",
":. c #C2B9B4",
">. c #DEC783",
",. c #DCC98E",
"<. c #D8CCA4",
"1. c #D7CEAD",
"2. c #D6CFB1",
"3. c #D5D1BA",
"4. c #E1D6B3",
"5. c #CBC9C5",
"6. c #CECCC9",
"7. c #D1D3CD",
"8. c #D1D4D0",
"9. c #E5D9CB",
"0. c #F5E9CD",
"q. c #F4E5DB",
"w. c #E9EAE5",
"e. c #F5F0E2",
"r. c white",
/* pixels */
"                                        ~ ~ ~ ~                                   ~ ~ ~                                         ",
"                                ~ ~ ~ ~ ~ ~ ~ ~ ~                             ~ ~ ~ ~ ~ ~ ~ ~ ~                                 ",
"                          ~ ~ ~ ~ ~ ~ ~ ~ ~ ~ ~ ~                             ~ ~ ~ ~ ~ ~ ~ ~ ~ ~ ~ ~                           ",
"                      ~ ~ ~ ~ ~ ~ ~ ~ ~ ~ ~ ~ ~ ~                             ~ ~ ~ ~ ~ ~ ~ ~ ~ ~ ~ ~ ~ ~                       ",
"                ~ ~ ~ ~ ~ ~ ~ ~ ~ ~ ~ n n ~ ~ ~ ~           w w e w           ~ ~ ~ ~ J v Y ~ ~ ~ ~ ~ ~ ~ ~ ~ ~                 ",
"            ~ ~ ~ ~ ~ ~ ~ ~ ~ ~ ~ ~ 7 - - c ~ ~ ~ M w w w w w w w w w w w w u ~ ~ ~ J - - ; P ~ ~ ~ ~ ~ ~ ~ ~ ~ ~ ~             ",
"        ~ ~ ~ ~ ~ ~ ~ ~ ~ ~ ~ ~ ~ v - - - 4 P M e w w w w w w w w w w w w w w w g K s - - - 8 ~ ~ ~ ~ ~ ~ ~ ~ ~ ~ ~ ~ ~ ~       ",
"  ~ ~ ~ ~ ~ ~ ~ ~ ~ ~ ~ ~ ~ ~ ~ Y ; - - - 2 w w w w w w w w w w w w w w w w w w w w + - - - - J ~ ~ ~ ~ ~ ~ ~ ~ ~ ~ ~ ~ ~ ~ ~   ",
"~ ~ ~ ~ ~ ~ ~ ~ ~ ~ ~ ~ ~ ~ ~ ~ G - - - + w w w w w w w w w w w w w w w w w w w w w w @ 3 - - j ~ ~ ~ ~ ~ ~ ~ ~ ~ ~ ~ ~ ~ ~ ~ ~ ",
"~ ~ ~ ~ ~ ~ ~ ~ ~ ~ ~ ~ ~ ~ ~ ~ j - - @ w w w w w w w w w w w w w w w w w w w w w w w w @ ; - 7 ~ ~ ~ ~ ~ ~ ~ ~ ~ ~ ~ ~ ~ ~ ~ ~ ",
"~ ~ ~ ~ ~ ~ ~ ~ ~ ~ ~ ~ ~ ~ ~ ~ 4 - + w w w w w w w w w w w w w w w w w w w w w w w w w w @ - - Y ~ ~ ~ ~ ~ ~ ~ ~ ~ ~ ~ ~ ~ ~ ~ ",
"  ~ ~ ~ ~ ~ ~ ~ ~ ~ ~ ~ ~ ~ ~ Y - 2 w w w w w w w w w w w w w w w w w w w w w w w w w w w w + - J ~ ~ ~ ~ ~ ~ ~ ~ ~ ~ ~ ~ ~ ~ ~ ",
"  ~ ~ ~ ~ ~ ~ ~ ~ ~ ~ ~ ~ ~ ~ P - @ w w w w w w w w w w w w w w w w w w w w w w w w w w w w e ; G ~ ~ ~ ~ ~ ~ ~ ~ ~ ~ ~ ~ ~ ~   ",
"    ~ ~ ~ ~ ~ ~ ~ ~ ~ ~ ~ ~ ~ K 1 w w w w w w w w w w w w w w w w w w w w w w w w w w w w w w 5 n ~ ~ ~ ~ ~ ~ ~ ~ ~ ~ ~ ~ ~     ",
"      ~ ~ ~ ~ ~ ~ ~ ~ ~ ~ ~ ~ J @ w w w w w w w w w w w w w w w w w w w w w w w w w w w w w w O x ~ ~ ~ ~ ~ ~ ~ ~ ~ ~ ~ ~       ",
"        ~ ~ ~ ~ ~ ~ ~ ~ ~ ~ ~ C w w w w w w u f e w w w w w w w w w w w w w w w u d w w w w w w h ~ ~ ~ ~ ~ ~ ~ ~ ~ ~ ~         ",
"        ~ ~ ~ ~ ~ ~ ~ ~ ~ ~ ~ V w w w w w w N ~ U u w w w w w w w w w w w w t D ~ D w w w w w w a ~ ~ ~ ~ ~ ~ ~ ~ ~ ~ ~         ",
"          ~ ~ ~ ~ ~ ~ ~ ~ ~ ~ f w w w w w w u ~ ~ ~ u w w w w w w w w w w r Y ~ ~ N w w w w w w t ~ ~ ~ ~ ~ ~ ~ ~ ~ ~           ",
"            ~ ~ ~ ~ ~ ~ ~ ~ ~ d w w w w w w r ~ ~ ~ U r w w w w w w w w w A ~ ~ ~ u w w w w w w e ~ ~ ~ ~ ~ ~ ~ ~ ~ ~           ",
"            ~ ~ ~ ~ ~ ~ ~ ~ ~ r w w w w w w w U ~ ~ ~ B w w w w w w w w f ~ ~ ~ ~ t w w w w w w w Y ~ ~ ~ ~ ~ ~ ~ ~             ",
"              ~ ~ ~ ~ ~ ~ ~ ~ w w w w w w u S ~ ~ ~ ~ ~ r w w w w w w w F ~ ~ ~ ~ U f w w w w w w D ~ ~ ~ ~ ~ ~ ~               ",
"                ~ ~ ~ ~ ~ ~ S w w w w w M ~ ~ ~ ~ ~ ~ ~ M w w w w w w y ~ ~ ~ ~ ~ ~ ~ D w w w w w g ~ ~ ~ ~ ~ ~                 ",
"                  ~ ~ ~ ~ ~   w w w w w t M Y ~ ~ ~ ~ ~ F w w w w w w B ~ ~ ~ ~ ~ Y B u w w w w w e ~ ~ ~ ~ ~ ~                 ",
"                  ~ ~ ~ ~     w w w w w w i 6.9.=.^ ~ ~ ~ t w w w w w U ~ ~ ~ [ -.7.m w w w w w w     ~ ~ ~ ~                   ",
"                    ~ ~ ~     w w w w w w O.w.r.e.( / ~ ~ f w w w w t ~ ~ ] q.{ ' 2.:.w w w w w w       ~ ~                     ",
"                                w w w w w :.4.e.X.X _ =.~ B w w w w f ~ *.0.6.X R >.8.i w w w w w                               ",
"                                w w w w w ;.<.) X o ` 1.@.t w w w w r Q 7.} : . E >.7.r w w w w                                 ",
"                                w w w w w o.7. ._ ` ..8.W w w w w w w k 7.,.' _ | 3.&.w w w w w                                 ",
"                                w w w w w r :.8.1.2.8.%.e w w w w w w w o.8.3.<.7.5.k w w w w w                                 ",
"                                w w w w w w r ! $.#.W e w w w w w w w w w I +.%.O.p w w w w w w                                 ",
"                                w w w w w w w w w w w w w w w w w w w w w w w w w w w w w w w w                                 ",
"                                w w w w w w w w w w w w w w w w w w w w w w w w w w w w w w w w                                 ",
"                                w w r u u y r w w w w w w w w w w w w w w w w w w r t u u t e w                                 ",
"                                A Y ~ ~ ~ ~ ~ Y A f e w w w w w w w w w w w u B U ~ ~ ~ ~ ~ ~ S                                 ",
"                            ~ ~ ~ ~ ~ ~ ~ ~ ~ ~ ~ ~ Y M r w w w w w w e g F ~ ~ ~ ~ ~ ~ ~ ~ ~ ~ ~ ~                             ",
"                          ~ ~ ~ ~ ~ ~ ~ ~ ~ ~ ~ ~ ~ ~ ~ ~ N r w w w g Y ~ ~ ~ ~ ~ ~ ~ ~ ~ ~ ~ ~ ~ ~ ~ ~                         ",
"                      ~ ~ ~ ~ ~ ~ ~ ~ ~ ~ ~ ~ ~ ~ ~ ~ ~ P J z 7 6 s H L ~ ~ ~ ~ ~ ~ ~ ~ ~ ~ ~ ~ ~ ~ ~ ~ ~                       ",
"                    ~ ~ ~ ~ ~ ~ ~ ~ ~ ~ ~ ~ ~ ~ ~ ~ b & $ $ $ # # # # # % q ~ ~ ~ ~ ~ ~ ~ ~ ~ ~ ~ ~ ~ ~ ~ ~                     ",
"                  ~ ~ ~ ~ ~ ~ ~ ~ ~ ~ ~ ~ ~ ~ ~ ~ K # # = = = = # # # # # # c ~ ~ ~ ~ ~ ~ ~ ~ ~ ~ ~ ~ ~ ~ ~ ~                   ",
"                ~ ~ ~ ~ ~ ~ ~ ~ ~ ~ ~ ~ ~ ~ ~ ~ ~ c # # $ * * $ # # # # # # 9 ~ ~ ~ ~ ~ ~ ~ ~ ~ ~ ~ ~ ~ ~ ~ ~ ~                 ",
"                ~ ~ ~ ~ ~ ~ ~ ~ ~ ~ ~ ~ ~ ~ ~ ~ ~ K # # # # # # # # # # # # c ~ ~ ~ ~ ~ ~ ~ ~ ~ ~ ~ ~ ~ ~ ~ ~ ~ ~               ",
"              ~ ~ ~ ~ ~ ~ ~ ~ ~ ~ ~ ~ ~ ~ ~ ~ ~ ~ ~ < # # # # # # # # # # & P ~ ~ ~ ~ ~ ~ ~ ~ ~ ~ ~ ~ ~ ~ ~ ~ ~ ~               ",
"              ~         ~ ~ ~ ~ ~ ~ ~ ~ ~ ~ ~ ~ ~ ~ P & # # # # # # # # # H ~ ~ ~ ~ ~ ~ ~ ~ ~ ~ ~ ~ ~ ~         ~               ",
"                      ~ ~ ~ ~ ~ ~ ~ ~ ~ ~ ~ ~ ~ ~ ~ ~ J , # # # # # # % b ~ ~ ~ ~ ~ ~ ~ ~ ~ ~ ~ ~ ~ ~ ~ ~                       ",
"                      ~ ~ ~ ~ ~ ~ ~ ~ ~ ~ ~ ~ ~ ~ ~ ~ ~ Y 0 > # # & 9 P ~ ~ ~ ~ ~ ~ ~ ~ ~ ~ ~ ~ ~ ~ ~ ~ ~ ~                     ",
"                    ~ ~ ~ ~ ~ ~ ~ ~ ~ ~ ~ ~ ~ ~ ~ ~ ~ ~ ~ ~ ~ P Z ~ ~ ~ ~ ~ ~ ~ ~ ~ ~ ~ ~ ~ ~ ~ ~ ~ ~ ~ ~ ~                     ",
"                    ~ ~ ~ ~ ~ ~ ~ ~ ~ ~ ~ ~ ~ ~ ~ ~ ~ ~ ~ ~ ~ A M ~ ~ ~ ~ ~ ~ ~ ~ ~ ~ ~ ~ ~ ~ ~ ~ ~ ~ ~ ~ ~ ~                   ",
"                  ~ ~ ~ ~ ~ ~ ~ ~ ~ ~ ~ ~ ~ ~ ~ ~ ~ ~ ~ ~ ~ ~ f t ~ ~ ~ ~ ~ ~ ~ ~ ~ ~ ~ ~ ~ ~ ~ ~ ~ ~ ~ ~ ~ ~                   ",
"                  ~ ~ ~ ~ ~ ~ ~ ~ ~ ~ ~ ~ ~ ~ ~ ~ ~ ~ ~ ~ ~ ~ r w D ~ ~ ~ ~ ~ ~ ~ ~ ~ ~ ~ ~ ~ ~ ~ ~ ~ ~ ~ ~ ~                   ",
"                  ~       ~ ~ ~ ~ ~ ~ ~ ~ ~ ~ ~ ~ ~ ~ ~ ~ ~ M w w u ~ ~ ~ ~ ~ ~ ~ ~ ~ ~ ~ ~ ~ ~ ~ ~ ~                           ",
"                        ~ ~ ~ ~ ~ ~ ~ ~ ~ ~ ~ ~ ~ ~ ~ ~ ~ D e w w w N ~ ~ ~ ~ ~ ~ ~ ~ ~ ~ ~ ~ ~ ~ ~ ~ ~                         ",
"                        ~ ~ ~ ~ ~ ~ ~ ~ ~ ~ ~ ~ ~ ~ ~ ~ D t w w w w w A ~ ~ ~ ~ ~ ~ ~ ~ ~ ~ ~ ~ ~ ~ ~ ~                         ",
"                        ~ ~ ~ ~ ~ ~ ~ ~ ~ ~ ~ ~ ~ ~ ~ M w w w w w w w w u U ~ ~ ~ ~ ~ ~ ~ ~ ~ ~ ~ ~ ~ ~                         ",
"                        ~ ~ ~ ~ ~ ~ ~ ~ ~ ~ ~ ~ ~ B t w w w w w w w w w w r M Y ~ ~ ~ ~ ~ ~ ~ ~ ~ ~ ~ ~                         ",
"                        ~         ~ ~ ~ ~ ~ ~ S t w w w w w w w w w w w w w w r B ~ ~ ~ ~ ~ ~ ~       ~                         ",
"                                ~ ~ ~ ~ ~ ~ g w w w w w w w w w w w w w w w w w w t T ~ ~ ~ ~ ~                                 ",
"                                ~ ~ ~ ~ ~ A w w w w w w w w w w w w w w w w w w w w l ~ ~ ~ ~ ~                                 ",
"                                ~ ~ ~     t w w w w w w w w w w w w w w w w w w w w w S   ~ ~ ~                                 ",
"                                ~ ~       w w w w w w w w w w w w w w w w w w w w w w       ~ ~                                 ",
"                                ~         w w w w t u y r w w w w w w e t u t w w w w g       ~                                 ",
"                                          w w t             t w w r g           u w w g                                         ",
"                                          t r                 y r                 y e                                           ",
"                                            g                   f                   g                                           ",
"                                                                                                                                "
};
