/* XPM */
static char *b83e39c9110042c496d7147746e1032cHxbbVh5PsH5dFjrC[] = {
/* columns rows colors chars-per-pixel */
"64 64 126 2 ",
"   c None",
".  c #6DC82A",
"X  c #6DC82B",
"o  c #6EC82B",
"O  c #6EC82C",
"+  c #6FC82C",
"@  c #6EC92C",
"#  c #6FC82D",
"$  c #70C92D",
"%  c #70C82E",
"&  c #70C92E",
"*  c #70C82F",
"=  c #71C82F",
"-  c #70C92F",
";  c #71C92F",
":  c #72C92F",
">  c #71C930",
",  c #72C930",
"<  c #72C831",
"1  c #72C931",
"2  c #73C931",
"3  c #73CA31",
"4  c #73C932",
"5  c #73C933",
"6  c #74C932",
"7  c #74C933",
"8  c #74CA33",
"9  c #75CA33",
"0  c #74C934",
"q  c #75C934",
"w  c #74C935",
"e  c #75C935",
"r  c #75CA34",
"t  c #75CA35",
"y  c #76CA35",
"u  c #75C936",
"i  c #76C936",
"p  c #76C937",
"a  c #75CA36",
"s  c #76CA36",
"d  c #77CA36",
"f  c #77CA37",
"g  c #76CB37",
"h  c #77CB37",
"j  c #77C938",
"k  c #77C939",
"l  c #77CA38",
"z  c #78C939",
"x  c #78CA38",
"c  c #78CA39",
"v  c #79CA39",
"b  c #78CB39",
"n  c #79CB39",
"m  c #7AC93A",
"M  c #7AC93B",
"N  c #78CA3A",
"B  c #79CA3A",
"V  c #79CB3A",
"C  c #79CA3B",
"Z  c #79CB3B",
"A  c #7ACA3A",
"S  c #7ACA3B",
"D  c #7BCA3B",
"F  c #7ACB3B",
"G  c #7BC93C",
"H  c #7ACA3C",
"J  c #7ACB3C",
"K  c #7BCB3C",
"L  c #7BCA3D",
"P  c #7BCB3D",
"I  c #7CCB3E",
"U  c #7CCB3F",
"Y  c #7DCB3F",
"T  c #7BCC3C",
"R  c #7CCB40",
"E  c #7DCB40",
"W  c #7ECB40",
"Q  c #7ECB41",
"!  c #7FCB42",
"~  c #7ECC41",
"^  c #80CB40",
"/  c #80CB43",
"(  c #80CC43",
")  c #80CC44",
"_  c #81CC44",
"`  c #81CC45",
"'  c #82CC46",
"]  c #82CC47",
"[  c #83CC47",
"{  c #83CC48",
"}  c #84CC49",
"|  c #85CC49",
" . c #85CC4A",
".. c #85CD4B",
"X. c #86CC4B",
"o. c #86CD4C",
"O. c #87CD4C",
"+. c #87CD4D",
"@. c #88CD4E",
"#. c #88CD4F",
"$. c #89CD4F",
"%. c #89CD50",
"&. c #8ACD50",
"*. c #8ACD51",
"=. c #89CE51",
"-. c #8BCD52",
";. c #8BCE52",
":. c #8CCE53",
">. c #8DCD54",
",. c #8CCD55",
"<. c #8DCD55",
"1. c #8ECD55",
"2. c #8CCE54",
"3. c #8DCE54",
"4. c #8CCF54",
"5. c #8DCF54",
"6. c #8CCE55",
"7. c #8DCE55",
"8. c #8DCF55",
"9. c #8ECF54",
"0. c #8ECE55",
"q. c #8ECF55",
"w. c #8CCD56",
"e. c #8DCD56",
"r. c #8CCE56",
"t. c #8DCE56",
/* pixels */
"                                                                                                                                ",
"                                                                                                                                ",
"                                                                                                                                ",
"                                                                                                                                ",
"                                                                                                                                ",
"                                                                                                                                ",
"                          o o T                                                                   q.t.                          ",
"                          o o a                                                                 t.2.2.                          ",
"                          a . . ;.                                                            q.t.q.0.                          ",
"                            . . E 2.                                                        t.2.2.2.                            ",
"                            = . 4 2.2.                                                    q.2.e.q.t.                            ",
"                            k . . O.0.2.                                                2.e.q.q.2.                              ",
"                              o . m 2.2.0.                                            t.2.q.e.2.q.                              ",
"                              8 . . :.2.2.                                            2.2.t.q.2.q.                              ",
"                              H . . ' 2.q.t.                                        2.t.q.q.t.t.                                ",
"                                O . h t.q.2.2.                                    2.2.2.t.2.2.q.                                ",
"                                8 o o ;.2.2.2.                                    e.e.q.t.q.q.2.                                ",
"                                h o o } 2.2.0.2.                                0.q.2.2.2.2.t.                                  ",
"                                  o o H 2.t.2.q.                              2.2.q.q.e.q.t.t.                                  ",
"          a 8                     ; . ; q.q.2.t.q.                            t.2.t.2.e.q.2.t.                    a a           ",
"          4 o ;                   a . . ;.2.2.2.2.2.                        q.q.q.q.e.2.t.2.q.                  0 o 8           ",
"          m o o !                 m . . ' 2.2.t.t.q.                        t.2.t.2.e.q.q.2.                  a o o ^           ",
"            o o a                   . . m 2.q.t.t.2.t.                    q.q.2.2.e.2.q.q.t.                m o . T             ",
"            a . O 2.                4 . % e.q.2.q.2.t.                    2.e.e.q.q.2.e.2.t.              H o o k t.            ",
"              o o E 2.              k o o } 2.2.2.t.2.t.                0.t.2.q.2.q.e.e.2.t.              . o 4 ;.              ",
"              4 . ; 2.2.              o o I 2.2.2.q.2.t.                2.q.2.t.e.q.2.q.t.              4 o o O.2.              ",
"              k o o @.2.              o . m 2.2.q.2.q.t.              2.q.2.q.t.e.2.q.2.2.            m o . ^ t.2.              ",
"                o o / 2.q.            @ . 8 0.2.t.t.q.2.q.            0.t.t.q.2.q.2.t.t.q.            o o ; 2.2.                ",
"                o . a 2.2.2.          a o o 2.2.2.q.e.2.q.          1.2.2.2.q.e.t.2.q.q.2.          a o o [ 2.2.                ",
"                4 . @ ;.2.2.          a o o @.2.2.t.q.2.t.q.        2.e.q.t.q.2.q.2.t.2.2.        m o o a t.2.q.                ",
"                m o . { 2.q.t.        m . . ! 2.q.q.e.e.2.2.        2.q.e.q.e.2.q.t.0.2.          @ . . O.2.2.                  ",
"                  o . T t.2.2.          . . T 2.e.2.2.q.q.t.      0.e.q.2.2.e.q.2.0.2.2.        m o o a 2.t.2.                  ",
"; m               ; O = q.2.2.t.        . o m 2.2.e.e.q.t.q.q.    @.q.t.2.2.q.t.q.t.2.2.        4 o . } 2.q.e.              m 4 ",
"r o m             m . . *.t.q.q.        @ o ; 2.q.q.2.2.2.2.t.  m I 2.2.q.t.q.2.2.t.q.e.        o o a 2.t.q.t.            I o a ",
"  o .             m . . { e.t.2.q.      r o o ;.e.2.q.e.q.t.q.  8 4 :.2.e.q.t.2.2.q.0.0.      a . . [ :.t.2.              o o   ",
"  ; . a             . . E 2.q.2.2.      r o o } e.q.2.t.q.2.2.0.o o @.2.2.2.e.q.t.q.2.2.      ; . @ 2.2.q.2.            @ o T   ",
"  m o o 2.          o o a 2.2.0.2.2.    H o o [ 2.2.q.e.q.e.2.2.+ . ' 2.q.q.e.2.t.2.q.      a . . I q.t.2.q.          a . 4 ;.  ",
"    . . }           @ o 4 2.0.2.2.t.      . o H q.e.q.2.2.e.q.e.m . e 2.e.2.e.q.q.2.t.      @ . . @.2.t.2.e.        H . . O.    ",
"    @ o H 2.        a o . 2.t.q.t.2.      . . a e.q.e.2.2.q.e.q. .. O >.2.e.2.q.q.t.2.      . . a 2.2.q.q.0.        % . H 2.    ",
"    a o 4 2.2.      a o . ;.2.2.2.t.q.    = . 6 2.2.e.q.e.q.2.2.:.. O  .q.q.2.e.2.2.2.    a . . E 2.0.2.e.2.      m . . ;.2.    ",
"    m o . ;.r.      m o o [ 2.t.q.t.0.    8 . O 2.2.2.q.t.2.q.e.2.% . H 2.2.q.q.e.e.2.    ; o . *.t.t.q.2.        @ . m r.      ",
"      o . ! 2.        o o T t.2.q.2.2.    a . . 2.2.0.2.e.q.2.e.2.m . ; 2.2.e.2.2.q.q.    . o 4 2.q.2.2.2.      m o o ;.2.      ",
"      ; o m 2.2.      o . a 2.2.t.t.2.e.  a . . *.2.2.0.2.2.q.q.2.' . . *.2.2.t.q.2.t.  a o o R 2.0.q.t.2.      ; . a 2.2.      ",
"      8 o ; 2.2.      ; . 4 2.2.2.q.q.t.  m . . X.e.q.2.q.e.e.2.2.;.. .  .e.q.q.t.t.    4 . o O.q.2.2.0.2.    I o . ^ q.2.      ",
"      a o . O.2.t.    a . % 2.2.2.t.t.q.  m o o [ 2.2.0.e.q.q.2.2.2.. . I 2.0.2.2.q.    o o ; 2.t.e.2.q.2.    a o o 2.2.q.      ",
"      m o . } 2.2.    k . . :.2.q.q.2.2.  I . o ' 2.2.2.2.2.e.e.2.2.a . a 2.2.0.2.t.    . o k 2.2.q.2.e.2.    @ o m 2.t.        ",
"        o o [ 2.2.    a . . *.2.t.2.2.2.    . . / 2.q.2.q.e.2.q.0.t./ . + :.2.2.q.q.  m . . H 2.q.2.q.e.q.  m . o [ 2.q.        ",
"        o @ T 2.2.2.  h . . *.2.t.q.2.2.2.  . . E 2.e.e.q.2.e.q.2.q.X.. . O.2.0.t.2.  a . . { 2.e.e.q.2.2.  4 . o ;.2.2.        ",
"        = . m 2.2.2.  m o . { 2.2.q.e.e.2.  . . m 2.2.2.q.e.2.2.2.2.:.. . ' q.2.2.2.  ; . O 2.q.2.2.q.e.    ; . a :.t.0.        ",
"        = . 4 2.2.2.  m o . } 2.e.q.2.q.q.  . . m 2.q.2.2.e.q.e.0.2.2.% . I t.0.2.2.  . . = 2.2.q.e.q.2.    o o [ 2.q.2.        ",
"        6 . % 2.2.2.  H . o [ 2.e.2.q.2.t.  @ . m q.t.2.2.q.e.q.2.0.2.a . e 0.2.0.2.H . . m q.t.e.q.e.2.  m . . } 2.2.0.        ",
"        a . . 2.q.t.0.I . o [ 2.q.2.e.e.2.0.. . a 2.t.q.e.q.2.2.0.2.2./ . % 2.2.2.0.a . . E 2.0.2.2.e.q.  a . . 2.2.2.t.        ",
"        a o . :.t.2.2.  . . ! ;.t.2.q.q.2.2.o . a 2.2.q.t.2.q.e.2.2.q.O.. . :.2.q.q.a . o } 2.2.q.e.2.q.  a o 8 2.t.t.t.        ",
"        a o . ;.2.2.2.  . . ! 2.q.2.t.2.2.;.o . e 2.t.q.e.q.2.e.q.t.e.*.. . O.2.t.2.. . o :.2.2.q.2.e.q.  . o m q.q.2.q.        ",
"        a . . ;.q.t.2.  . . T r.q.t.2.t.2.2.4 o 6 2.0.2.2.2.q.q.t.q.2.2.. .  .2.2.;.. . ; 2.2.2.e.e.2.2.  . . ' t.2.q.2.        ",
"        h . . @.q.2.2.  . o m 2.2.t.q.q.2.t.a . = 2.2.0.q.e.e.2.2.2.2.0.% . E 2.2. .. . a 2.2.2.2.q.q.e.I . . O.t.q.2.          ",
"    o o @ . o k E I H a o . ; m H T H T H T 4 o @ H T H T H T T E I H P ; . 4 m T a . . 4 m T H H T H T @ . o V I I H a o o     ",
"  o o o o o o o o o o o o o o o o o o o o o o o o o o o o o o o . . o o o o . o o o . . . o o o o o o o o o o o . . o o o o o   ",
"                                                                                                                                ",
"                                                                                                                                ",
"                                                                                                                                ",
"                                                                                                                                ",
"                                                                                                                                ",
"                                                                                                                                "
};
