/* XPM */
static char *e0b2c528fe754cedb20e1be6a55e974byeSIslWDKL3BZwdV[] = {
/* columns rows colors chars-per-pixel */
"64 64 136 2 ",
"   c None",
".  c #383842",
"X  c #733C4E",
"o  c #7F3F51",
"O  c #44444E",
"+  c #4E4E56",
"@  c #51515A",
"#  c #5E5962",
"$  c #66656D",
"%  c #68656E",
"&  c #68686F",
"*  c #853E52",
"=  c #903F54",
"-  c #E3254C",
";  c #E4284F",
":  c #E62D53",
">  c #E83357",
",  c #EA355A",
"<  c #EB395C",
"1  c #F33A5E",
"2  c #EE3D61",
"3  c #F43D61",
"4  c #8E4054",
"5  c #BD455F",
"6  c #BD4660",
"7  c #D44765",
"8  c #DC4362",
"9  c #E24263",
"0  c #ED4263",
"q  c #F54265",
"w  c #F54668",
"e  c #F64B6D",
"r  c #F74F70",
"t  c #EC5774",
"y  c #ED5976",
"u  c #F75271",
"i  c #F85574",
"p  c #F85877",
"a  c #F65478",
"s  c #F7597A",
"d  c #F95C7A",
"f  c #F7617E",
"g  c #FA617E",
"h  c #7E7E84",
"j  c #C07789",
"k  c #C07889",
"l  c #F76685",
"z  c #FA6581",
"x  c #FB6A85",
"c  c #F76D8C",
"v  c #FC6E88",
"b  c #FC728C",
"n  c #F87293",
"m  c #F97C94",
"M  c #818087",
"N  c #838389",
"B  c #89898F",
"V  c #8F8F94",
"C  c #96969C",
"Z  c #99999E",
"A  c #A2818D",
"S  c #A68691",
"D  c #9E9EA3",
"F  c #AEAEB2",
"G  c #FA8097",
"H  c #FF849B",
"J  c #FE849A",
"K  c #FF869B",
"L  c #FF849C",
"P  c #FF859C",
"I  c #FE859D",
"U  c #FF869C",
"Y  c #FF869D",
"T  c #FD839A",
"R  c #FA8A9F",
"E  c #FF889D",
"W  c #FF889E",
"Q  c #FF899E",
"!  c #FF889F",
"~  c #FF889E",
"^  c #FA8EA2",
"/  c #F98EA3",
"(  c #FB8DAE",
")  c #FB8AAC",
"_  c #FB95A8",
"`  c #FB97AA",
"'  c #FC91B1",
"]  c #FC93B3",
"[  c #FB92B2",
"{  c #FB9CBC",
"}  c #FB9CBD",
"|  c #FCAEBD",
" . c #FBACBB",
".. c #FBB1BF",
"X. c #FCA7C7",
"o. c #FCA4C5",
"O. c #FDADCD",
"+. c #FDAECE",
"@. c #FDAECE",
"#. c #FCB3C1",
"$. c #FCB7C4",
"%. c #FCB9C5",
"&. c #FCBECA",
"*. c #C3C3C6",
"=. c #C5C5C8",
"-. c #DDDDDF",
";. c #FCC0CC",
":. c #FDC7D1",
">. c #FEC5DB",
",. c #FEC4DC",
"<. c #FECCDB",
"1. c #FDCADA",
"2. c #FDD2DA",
"3. c #FDD1DA",
"4. c #FDD8DF",
"5. c #FED7E7",
"6. c #FED7E7",
"7. c #FDD9E0",
"8. c #E7E7E8",
"9. c #E7E7E8",
"0. c #E9E9EA",
"q. c #ECECED",
"w. c #FDE2E7",
"e. c #FEE4E9",
"r. c #FEE5EA",
"t. c #FEE7EB",
"y. c #FEE9ED",
"u. c gray95",
"i. c #F4F4F5",
"p. c #FEF3F5",
"a. c #FFF6F8",
"s. c #FFF7F9",
"d. c #FFF8F9",
"f. c #FFFDFD",
"g. c white",
"h. c white",
/* pixels */
"            b b b b                                                                                                             ",
"        v b b x b b v                                                                                                           ",
"    x x x x x x x x x x                                                                                                         ",
"  z z x z x z x z u < ; >                                                                                                       ",
"  g z g g z g w : - - - ;                                                                                                       ",
"  g d d d u : - - - - - -                                                                                                       ",
"  d p d 0 ; - - - - ; 0 i v v b b b b b b b                                                                                     ",
"  i i , - - - - ; e x x x v v v b b b b b b b b b                                                                               ",
"  u , - - - - 0 f x x x x x x x v v v b b b b b b b                                                                             ",
"    - - - ; u z z x x x x x x v v v v v b v v b b b n J                                                                         ",
"    , - ; u z z z z x x x x x x x v x v v v v b b b Y Y Q                                                                       ",
"      , u g z g z x g x x x x x x x v v v v v b b Q Q Y Q Q                                                                     ",
"      g g g g g g z g x z z x x x x x x x v v b J Q Q Q Q Q Q                                                                   ",
"      g g g g g g z g z g x z z x x x x x x v T Q Q Q Q Y Q Q                                                                   ",
"    d d d g g g g z g z g z z z x z x x x v T Q Q Q Q Q Q Q Q Q                                                                 ",
"    d d d d f d g g g z g z g z z z z z x T Q Q Y Q Y Q Y Q Q Y                                                                 ",
"  d d p d d d d g g g g g g g g z z z z J Q Q Q Q Q Y Q Y Q J b b                                                               ",
"  p d p d d d d d d d g g g g g z g z v Q Q Q Y Q Y Q Q Q J b v v                                                               ",
"  p p d p d d d d d d d d g g g g g z b Y Q Q Q Q Q Q Q J b v v v v                                                             ",
"i i i p p p i d d d d d g d g g g g g b Q Q Q Y Q Y Q J v x x x x v                                                             ",
"u i i i i p p d d d p d d d d g g g g z J Q Q Q Q Q J v z x z v x x v                                                           ",
"i i i i i p i i p p d d d d d d d d g d x Y Q Q Q J v z z x z x x x x x                                                         ",
"u u i i i i i p p p p p d d d d d d g g g z v b b z g z z z z x z x x b                                                         ",
"u u u u u i i i i p p p p p p d d d d d d g g g g z g z z z z z z z v T Q                                                       ",
"r u u r u u i i i i i i p p p d d d d d d d g g d g g g g z z z z v J Q Y Y                                                     ",
"e r e u u u u i i i i i i i p p d d d d d d d g g f g g g g g z x J Q Q Q Q Q                                                   ",
"r r r r u r u u e i i i i g ` ..| ^ d p d d d d d g d g g g f x T Y Q Y Y Q Q Q                                                 ",
"  e e e r e u u u i u i j $ @ h 9.g.y.m p d d d d d d f g g g J Q Q Q Q Q Q Q Y Q                                               ",
"  e e e e e r r r i u j . . . . + u.g.a.b s p d d d d d d g J Q Y Q Y Q Q Q Q Q J x x                                           ",
"  e e e e e e u i e d % . . . . . F g.g.7.p p d d d d d f J Q E Q Q Q Q Q Y Q T x z z z                                         ",
"    e e e e l X.+.' _ @ . . . . . C g.g.g.c p p i d d d g Q Q Q Q Q Q Y Q Q T x z z x z x z                                     ",
"    e w e e ] +.+.+.<.h . . . . . *.g.g.g.R u p i p d i v Q E Q Q Y Q Q Y J z g g z z z z z z x                                 ",
"      e w e ( O.+.+.6.0.@ . . . h g.g.g.f.E i i i s i d z Y Q Q Q Q Q Q T z g g g g z z z z z v Y Q                             ",
"      e w e d O.+.+.>.g.i.F Z =.g.g.g.g.f.g i i i i i p p T Q Y Q Y Q T g d d g g g g g g z x Y Q Y Q Q                         ",
"        q e w z ' { n w.g.g.g.g.g.g.g.g.;.u u u i i i i i g T Q Q Y T d g d g d g g g z g z Y Y Q Y Q Y Q                       ",
"        q q w w w e e c s.g.g.g.g.g.g.r.d u u u u i i i i i s z x z d d d d d d d g d d x Y Q Q Q Q Q Q Q Q                     ",
"          w w w w w w e z 3.g.g.g.f.&.p r r u u u r i i i i i i i p p p p d p d d d d l Y Q Q Q Y Q Q Y Q Q T                   ",
"            q q w w w w w e g G m p e e e e r r u u u r u i i i i p p p p d p d d d z Y Y Q Y Y Q Q Q Q Y T x                   ",
"            q q w w w w w w w e e e e e e u r r r r r u u u i u i i p i p p p d d d T Q Q Q Q Q Y Q Y Y T x z z                 ",
"              q q q q q w w w w e e w e 7 5 e e r r r r u u u u i i i i i i p p d x Y Q Q Y Q Y Q Q Q T z g g z z               ",
"              q q q q q w w w w w w w 4 . . o e r e r r r r u u u i u i p i p p p b Q Q Q Q Y Q Y Y T z g g g g z               ",
"                3 q q q q q q w e q * . . . . o e e e r u e u r u u u i u i i i i x Q Q Q Y Q Q Q T g g d g g g g               ",
"                  q 3 q q q q q q 8 . . . . . . 5 w e e e e d R T x u u u i i p i p J Q Q Q Q Q T d d d d g g g g g             ",
"                    3 q q q q q q 8 . . . . . . 7 e e e y S N D q.g.4.b u u u u i i z J Q Y Q m d d d d d d d g g d             ",
"                    3 3 3 q q q q q X . . . . 4 e q e t # . . . @ 0.g.s.n u u u u i i p z v z p p d p d d d d d d g             ",
"                      3 3 3 3 q 3 q 0 X . . 4 w e q e A . . . . . V g.g.t.u e u u u i u i i i i p p p p i d d d d d             ",
"                        3 3 3 3 q 3 q q 8 8 q q q e p h . . . . . & g.g.g.T r u u u u u u i i i i p p p d d d d d d             ",
"                          3 3 q 3 3 q q q q q q q q m D . . . . . N g.g.g. .e u u u u u u u i i i i p i i p p d d d             ",
"                            3 3 3 3 3 q q 3 q q q q m q.+ . . . O -.g.g.g.| e r u e u u u u u u i i i i i i i p d p             ",
"                              1 1 3 3 3 3 q q q q q s g.9.B $ N -.g.g.g.g.^ e e e r e e u u u u u i i i i i p p p p             ",
"                                1 3 1 3 3 3 3 3 q q q 3.g.g.g.g.g.g.g.g.p.i w e e e r r e u r u r i u i i i i i i p             ",
"                                  3 1 3 3 3 3 q 3 3 q f a.g.g.g.g.g.g.g.R w e e e e e e e r r u r u r r i i i i i w ; ; >       ",
"                                    1 1 1 3 3 3 3 3 3 q z w.g.g.g.g.p.T w w w e e e e e e e e r r r r u u u i i i , - - - i     ",
"                                      1 1 1 1 3 3 3 3 q q c ,.6.<.^ u q w w w w e w w e e e e e e r r u u u u u e ; - - < p d   ",
"                                          1 1 1 1 3 3 3 3 } @.@.@.) q q q w q w w e w e e e e e e e r r r u u i 2 - - - e d g g ",
"                                            1 1 1 1 3 3 3 [ @.@.@.@.q q q w q w w w w w e w e e e e r e e u e e - - - : d g z z ",
"                                              1 1 1 1 1 3 s O.+.+.o.3 q q q q w q w w q e e e w e e e e e e e , - - - w f z z x ",
"                                                  1 1 1 1 1 a ) ( s 3 3 q 3 q q q q q e q q f r w e w e e e q - - ; : d z z x x ",
"                                                    1 1 1 1 1 3 3 3 3 3 e T m l q q q c _ %.:.| w e e e e q - - - ; u z x x v   ",
"                                                        1 1 1 1 3 3 3 3 m :.:.:.G q R :.:.:.:.#.w w w e 0 ; - - - 0 z z x x b   ",
"                                                            1 1 1 1 3 3 a %.:.:.R q m :.:.| m r q w w w < - - - < g z x v b     ",
"                                                                1 1 1 1 3 1 e f q 3 q i e q q q q w       < - < z z x v b b     ",
"                                                                    1 1 1 1 2 3 3 3 3 3 3 q q q               g x x v b b       ",
"                                                                          1 1 1 3 3 3 3 3                                       "
};
