/* XPM */
static char *_b31a9adf0d64543a14e1981d2984b277oTmDCnuKljrWCzb[] = {
/* columns rows colors chars-per-pixel */
"64 64 145 2 ",
"   c None",
".  c #383842",
"X  c #733B4D",
"o  c #7F3F51",
"O  c #44444D",
"+  c #4C4C55",
"@  c #4F4F58",
"#  c #51515A",
"$  c #5F5A63",
"%  c #66656D",
"&  c #69666F",
"*  c #853E52",
"=  c #8F3F54",
"-  c #E3254C",
";  c #E4284E",
":  c #E62D53",
">  c #EB3457",
",  c #EA355A",
"<  c #EB3A5C",
"1  c #F3375D",
"2  c #F33A5E",
"3  c #EE3F62",
"4  c #F43D61",
"5  c #8F4055",
"6  c #BD455F",
"7  c #BD4660",
"8  c #D44765",
"9  c #DC4262",
"0  c #E14363",
"q  c #ED4264",
"w  c #F54265",
"e  c #F54669",
"r  c #F64B6D",
"t  c #F74F70",
"y  c #ED5774",
"u  c #ED5875",
"i  c #F75271",
"p  c #F85574",
"a  c #F85877",
"s  c #F75979",
"d  c #F95C7A",
"f  c #F7617E",
"g  c #FA617E",
"h  c #7C7C83",
"j  c #F85F81",
"k  c #C17688",
"l  c #C17889",
"z  c #F76783",
"x  c #FA6581",
"c  c #FB6A85",
"v  c #F76D8C",
"b  c #FC6E88",
"n  c #FD728B",
"m  c #F87293",
"M  c #F97C94",
"N  c #828187",
"B  c #828288",
"V  c #89898F",
"C  c #8E8E94",
"Z  c #96969B",
"A  c #99999E",
"S  c #A6848F",
"D  c #9D9DA2",
"F  c #ABABAF",
"G  c #AFAFB3",
"H  c #FB8097",
"J  c #FE8299",
"K  c #FE839A",
"L  c #FE829A",
"P  c #FE8198",
"I  c #FE849A",
"U  c #FF849A",
"Y  c #FF849B",
"T  c #FF859B",
"R  c #FE849B",
"E  c #F9869C",
"W  c #F9879E",
"Q  c #FA879D",
"!  c #FF859C",
"~  c #FF859C",
"^  c #FF879D",
"/  c #FF879E",
"(  c #FE849B",
")  c #F9899E",
"_  c #FF889D",
"`  c #FF889E",
"'  c #FF899F",
"]  c #FF889E",
"[  c #F98BA1",
"{  c #F98DA2",
"}  c #F98FA3",
"|  c #FA8FA4",
" . c #FA8EA3",
".. c #FA88A9",
"X. c #FB8CAD",
"o. c #FB8DAE",
"O. c #FB8DAD",
"+. c #FB95A9",
"@. c #FC92B2",
"#. c #FB9CBC",
"$. c #FBAABA",
"%. c #FBACBB",
"&. c #FBAEBD",
"*. c #FBB1BF",
"=. c #FCB0BE",
"-. c #FCA5C6",
";. c #FCA7C7",
":. c #FDADCD",
">. c #FDAECE",
",. c #FDAECE",
"<. c #FBB2C0",
"1. c #FCB7C3",
"2. c #FCB3C1",
"3. c #FCB9C5",
"4. c #FCBFCB",
"5. c #C3C3C6",
"6. c #DDDDDE",
"7. c #FCC2CD",
"8. c #FDC7D1",
"9. c #FDC6D0",
"0. c #FEC4DB",
"q. c #FEC4DB",
"w. c #FDCBDA",
"e. c #FECCDB",
"r. c #FDD1D9",
"t. c #FED6E6",
"y. c #FED7E7",
"u. c #FDD9E0",
"i. c #FDDAE1",
"p. c #E6E6E7",
"a. c #EAEAEB",
"s. c #EEEEEF",
"d. c #EAEAEB",
"f. c #FDE1E6",
"g. c #FEE4E9",
"h. c #FEE8EC",
"j. c #FEE9ED",
"k. c #F4F4F4",
"l. c #FEF2F4",
"z. c #FEF4F6",
"x. c #FEF5F7",
"c. c #FFF6F8",
"v. c #FFF8F9",
"b. c white",
"n. c #FFFFFF",
/* pixels */
"                                                                                                            x x c b             ",
"                                                                                                          f g g x c c n         ",
"                                                                                                        p s d g x x c b n n     ",
"                                                                                                      : ; , e d g g x c n n n   ",
"                                                                                                      ; - - - : e g x x x n n   ",
"                                                                                                      - - - - - - : i x x c b   ",
"                                                                                    g g d d d d d a p e , ; - - - - - q x x c   ",
"                                                                              x x g g g g d d d d p a p p i 4 ; - - - - , g x   ",
"                                                                            x x g g d g d d d a a a p p p i i r , - - - - , g   ",
"                                                                        K c x g g g g d d d a d a a p p i i i t r q - - - -     ",
"                                                                      _ [ K x g g g d d d d d a p p p i p i i t t r w ; - <     ",
"                                                                    / _ _ _ K x g g g d d d a a a p p i i i t t r r r q ,       ",
"                                                                  _ / / _ _ _ K x d d d d a a p p p p i t t t r r r r e e       ",
"                                                                  [ / [ [ _ / / K g d d d a a a p p i i t t t r e r r r e       ",
"                                                                _ / _ _ / _ _ / / K g d a a p p p i i i t t r r r r e e e e     ",
"                                                                / / _ _ / / _ [ / _ P d a a p p p i i i t r r r r r e e e e     ",
"                                                              c b U / / / [ _ / / [ / M d p p p i i i i i r r r r r *.*.i w w   ",
"                                                              x x c / / / _ _ / / _ _ [ x p p p i i t t r r r r r g 8.8.H w w   ",
"                                                            x c x x c K / _ [ / / _ _ _ c p p i i i t t r r r r e r *.8.%.w w   ",
"                                                            x x x g x x / _ _ / _ _ / / x p i i i t t t r r e e e e | 8.9.e w w ",
"                                                          c x x x x g g c L / / [ / _ / a p i i t r t r r r r e e e v 8.9.a w 4 ",
"                                                        x x x x g g g d d x K / / / / g p p i i i t r r r r r e e w w H H 4 w 2 ",
"                                                        b x x g x g g d d d d c n c d i p i i t r i r r r e r e e w w w w 2 2 4 ",
"                                                      / / c x x g g g d d d d d a p p p i i i i t r r r r e w e e w e E ) w w 2 ",
"                                                    _ _ [ K c g g g g d d d a a p p p i i i i r r r r r e e e e w w f 8.8.f 2 < ",
"                                                  _ / [ _ _ K x g d d d d d a p a p p p i i i r r r r r r e w e e w H 9.8.i 4 2 ",
"                                                / / / _ / _ _ U x d d d d d a a p p i i i i E $.&.| p e e e e w w w E 7.1.4 2 2 ",
"                                              _ / [ _ _ / / [ _ U x d d a a a p p p i i M h.n.n.n.n.z.[ e e w w w w e M a 4 2   ",
"                                          b n U _ _ / / / _ / _ / K g d a d p p p p i n v.n.n.n.n.n.n.n.) e w w w w w 4 2 2 2   ",
"                                        c c c b / _ [ _ _ _ / / / [ M d a p p p i p i u.n.n.n.n.n.n.n.n.z.r w e 4 4 4 4 2 2 2   ",
"                                    b b b c x x c K / _ [ / _ [ / _ _ x d p p p i i c n.d.C % B 6.n.n.n.n.{ X.,.-.d 4 2 2 2     ",
"                                n b b c c c c x x c U _ / / _ _ _ _ _ c p p p p i i E s.@ . . . O 6.n.n.n.w.,.,.,.X.4 2 2 2     ",
"                            [ / n b b b b x x x x x x / / [ _ [ _ [ / g a a p i i i H D . . . . . B n.n.n.t.>.>.>...4 1 1       ",
"                        _ / / _ U n c c c c c x x x x x K _ _ _ / / K d p i p i i t d N . . . . . % n.n.n.q.>.>.:.p 4 1 1       ",
"                      / _ _ / _ _ / n c x x x x g g g d x M _ _ / K d p p p i i t t r S . . . . . C n.n.f.v #.@.s 4 1 4         ",
"                    / / [ _ / / _ _ U n c x x x x g x d g d x b x d p p p i i i i t t u $ . . . + p.n.x.z 4 4 4 4 4 1 ,         ",
"                  / _ _ / / _ [ _ [ / / b x x x g g d g d d d a a p p p p i i t t r r r u S N D d.n.r.f 4 w 4 4 2 2 2           ",
"                  n / _ / [ _ _ _ _ / / / c g g g g g d d d a a a p p p i i i r t t r r e e i M M d w 4 4 4 4 4 2 2 2           ",
"                n n n / _ _ [ _ / [ _ _ _ U x g g g d d d d d a a p p p i i i t r r r r r e e w w w w w 4 4 4 2 2 2             ",
"              n m n b n K / / _ / _ _ _ / / n g g d g d d a a a a p p i i i i r r r 6 8 e e e e w w w 4 4 4 4 2 2               ",
"              n n n n b n U _ _ / _ / _ _ / n x g d d d d d a p p p i i i t r i r o . . = w e w w w 4 4 4 2 2 2 1               ",
"              n n b n b b b K _ _ _ / / _ [ n d d g d d a a a a p p p i t i r r o . . . . * w w w 4 w 4 4 4 2 2                 ",
"            n n n n b b b b b K [ / / [ [ L x d d d d d d d n ) E g i t t r r 7 . . . . . . 0 w w 4 4 4 4 2 2                   ",
"            n M n b b b c c c c M [ _ _ L b x d d d a d m r.n.n.n.n.7.d i r r 8 . . . . . . 9 w w 4 4 4 4 2                     ",
"            n n b b b b c c c x x b n b x g d g d d a H v.n.n.n.n.n.n.h.d r r r 5 . . . . X w w 4 4 4 4 2 2                     ",
"            n n b b b b b c c c x x x x g d g d d d d j.n.n.n.n.n.n.n.n.4.r r r e * . . X q w 4 4 4 4 2 2                       ",
"            n n b b b b x c x x x x g d g g d d d a { n.k.F Z 5.n.n.n.n.n.a r r r e 0 9 e w 4 w 4 4 2 2                         ",
"            n n b b c c c x x x x x x g g d d d d a =.p.+ . . . h n.n.n.n.M e e e e e w w w 4 4 4 4 2                           ",
"            n n b c c c x b x x x g g g d g d d a a 2.h . . . . . 5.n.n.n.M r r e e w w w w w 4 4 4                             ",
"            n c b b b x x x x g x g g d d d d d a a +.# . . . . . A n.n.n.d e e e e w w 4 4 4 4 2                               ",
"            b b c b c b x x x x g g g g d d d a a a g % . . . . . G n.n.r.e e e w e w w w 4 4 4                                 ",
"      > - - p c c x x x x x x g g g d g d d d a a p p k . . . . # k.n.v.x r e w w w w w 4 4 4                                   ",
"    c ; - - 3 b b c c c x x x g g g d d d d d a p p p i k & # N d.n.h.c e e e e w w w 4 4 4                                     ",
"  b c < - - ; z x c x x x x g g g d d d d d p a a p p p i a +.e.y.q.m e e e e e w w 4 w 4                                       ",
"n b c i - - - e c x x x x x g g g d d d a d p a p p i i t t @.,.>.>.#.e e e e w w w 4                                           ",
"n n c x : - - : x x x x x g g g d d d d d p d p p p i i t p ,.,.>.>.@.e e e w w w w                                             ",
"n b c x r - - - q x x x g g g g d d d d a p p p p p i i t t ;.>.>.>.j e e e w w w                                               ",
"n n c x g : - - - i g f g g g f d d d a d a p p i i i t t r c @.o.x e e e w w                                                   ",
"  n c c g i - - - ; p f g g g d d d d a p a p p i i t t t r r r r e e e e                                                       ",
"  b c x x d q - - - ; p g g g d d d a a p p p i i i t t t r r e e e e e                                                         ",
"    c x x d d , - - - , g d d d d a a a p p p i i i r r r r e r e e                                                             ",
"    c x x d d i , - >       d d d a p a p p i i i t t t r r r e                                                                 ",
"      c g d d p i               d a a p p p i i i t r r r r                                                                     ",
"                                      p p i p i r t t                                                                           "
};
