/* XPM */
static char *cabf5db7b1564d698957362ede125182ioxxVshDtJTeQYd2[] = {
/* columns rows colors chars-per-pixel */
"64 64 98 2 ",
"   c None",
".  c #383842",
"X  c #733B4D",
"o  c #7F3F51",
"O  c #44444D",
"+  c #4C4C55",
"@  c #4F4F58",
"#  c #51515A",
"$  c #5F5A63",
"%  c #66656D",
"&  c #69666F",
"*  c #853E52",
"=  c #8F3F54",
"-  c #E3254C",
";  c #E4284E",
":  c #E62D53",
">  c #EB3457",
",  c #EA355A",
"<  c #EB3A5C",
"1  c #F3375D",
"2  c #F33A5E",
"3  c #EE3F62",
"4  c #F43D61",
"5  c #8F4055",
"6  c #BD455F",
"7  c #BD4660",
"8  c #D44765",
"9  c #DC4262",
"0  c #E14363",
"q  c #ED4264",
"w  c #F54265",
"e  c #F54669",
"r  c #F64B6D",
"t  c #F74F70",
"y  c #ED5774",
"u  c #ED5875",
"i  c #F75271",
"p  c #F85574",
"a  c #F85877",
"s  c #F75979",
"d  c #F95C7A",
"f  c #F7617E",
"g  c #FA617E",
"h  c #7C7C83",
"j  c #F85F81",
"k  c #C17688",
"l  c #C17889",
"z  c #F76783",
"x  c #FA6581",
"c  c #FB6A85",
"v  c #F76D8C",
"b  c #FC6E88",
"n  c #FD728B",
"m  c #F87293",
"M  c #F97C94",
"N  c #828187",
"B  c #828288",
"V  c #89898F",
"C  c #8E8E94",
"Z  c #96969B",
"A  c #99999E",
"S  c #A6848F",
"D  c #9D9DA2",
"F  c #ABABAF",
"G  c #AFAFB3",
"H  c #FB8097",
"J  c #FE849B",
"K  c #FF889E",
"L  c #F98EA3",
"P  c #FB8CAC",
"I  c #FB95A9",
"U  c #FC92B2",
"Y  c #FB9CBC",
"T  c #FBACBB",
"R  c #FCB1BF",
"E  c #FCA6C7",
"W  c #FDAECE",
"Q  c #FCB4C1",
"!  c #FCB9C5",
"~  c #FCBFCB",
"^  c #C3C3C6",
"/  c #DDDDDE",
"(  c #FCC2CD",
")  c #FDC7D1",
"_  c #FEC4DB",
"`  c #FECCDB",
"'  c #FDD1D9",
"]  c #FED7E7",
"[  c #FDDAE1",
"{  c #E6E6E7",
"}  c #EBEBEC",
"|  c #FDE1E6",
" . c #FEE4E9",
".. c #FEE9ED",
"X. c #F4F4F4",
"o. c #FEF4F6",
"O. c #FFF6F8",
"+. c #FFFFFF",
/* pixels */
"                                                                                                            x c c c             ",
"                                                                                                          d g g c c c n         ",
"                                                                                                        p a d d g x c c n n     ",
"                                                                                                      : ; , r d g g c c b n n   ",
"                                                                                                      ; - - - : e d x x c b b   ",
"                                                                                                      - - - - - - : i x c c b   ",
"                                                                                    g g d d d d d a a w , ; - - - - - q g c c   ",
"                                                                              x x g g g g d d d d a a p p i 4 ; - - - - < g x   ",
"                                                                            x g g g g d d d d a a d p p p i i r , - - - - , g   ",
"                                                                        H x x x x d x d d d d a p p p p i i i t r q ; - - -     ",
"                                                                      K K J c g g g d d d d d a a p p i i i t t t r e ; - <     ",
"                                                                    K K K K J g g d g d d d a a p p p p i i t t r r r q ,       ",
"                                                                  K K K K K K J x d d d d a a p p p p i t t t r r e r r e       ",
"                                                                  K K K K K K K J g d d d a a a p p p i t t t t r r r r e       ",
"                                                                K K K K K K K K K J g d a a p p p i i i t t r r r r e e e w     ",
"                                                                K K K K K K K K K K H d a a p p p i i t t t r e r r e e e w     ",
"                                                              c c K K K K K K K K K K H a p p p i i i i i r r r r r R R i w w   ",
"                                                              x x c J K K K K K K K K K g p p p i i i t r r r r r g ) ) H w w   ",
"                                                            x c x x c K K K K K K K K K b p p i i i t t r r r r e r R ) T w w   ",
"                                                            x x x g g x J K K K K K K K g p p i i t t r r r e e e e L ) ( r w w ",
"                                                          c x x x g g g c J K K K K K J a p i i t t t r r r r e e w v ) ) a 4 4 ",
"                                                        x c x x x g g d d x J K K K K g p i i i t t t r r r r e e e e H H 4 4 4 ",
"                                                        c x c g g x g d d d d c n c d p p i t t r r r r r r w e e w e e w 4 w 4 ",
"                                                      K J b g g g g d g d d d a a a p p p i i t i r r r r e e e e w q H K w 4 2 ",
"                                                    K K K J c g g g g d d d a a a i p p i t t t r r r e r e e e w w f ) ) f < 2 ",
"                                                  K K K K K J x g d d d d d a p a p p i i i t r t r r r e e w e w w H ) ) i w 2 ",
"                                                K K K K K K K J x d d d d d a a a p i i i i K T T L p e e e e w w w K ) ! 4 2 2 ",
"                                              K K K K K K K K K J x d d a a a p i a i a M  .+.+.+.+.o.L e e w w w w q M p 2 2   ",
"                                          b n J K K K K K K K K K J d d a a a p p i i m O.+.+.+.+.+.+.+.K e w w w w w 4 2 2 2   ",
"                                        c c c b J K K K K K K K K L M d a p p p p i t ' +.+.+.+.+.+.+.+.o.r w e 4 4 4 2 2 2 2   ",
"                                    b b b c x x c J K K K K K K K K K x a a p p p i v +.} C % N / +.+.+.+.L P W E d w 2 2 2     ",
"                                n b b c c c c x x c J K K K K K K K K b p p p p i i J } @ . . . O / +.+.+.` W W W P 4 2 2 2     ",
"                            K K n b b c c c c x g c x J K K K K K K K x p p p i i i H D . . . . . B +.+.+.] W W W P 4 1 1       ",
"                        K K K K J n b b x c x c c g g g J K K K K K H d p p i i i i d B . . . . . % +.+.+._ W W W p 4 2 1       ",
"                      K K K K K J K n c c x x g g g g g g J K K K H g p p p p i i r r S . . . . . V +.+.| v Y U s 4 1 2         ",
"                    K K K K K K K K J b x c c g g g g d g g x b x a p p p i i i i i r y $ . . . + } +.O.z 4 4 4 4 < 1 1         ",
"                  J J K K K K K K K K J b g c g g g g g g a a d a p p p i i i i r i r r y S B D } +.' d w 4 4 4 2 2 2           ",
"                  M J K K K K K K K K K J b g g g g g g g a a a a a p p i i i t t t r r e e p M M s w w w 4 4 4 2 2 2           ",
"                n n n K K K K K K K K K K J g g g g g a g a s s a p p p t p i r r r r r e e e w e w w 4 4 4 4 2 2 2             ",
"              n n n n n J K K K K K K K K J n g g g g a a a p s p p p i i t p r r r 6 8 r e e e w w 4 w 4 4 2 2 2               ",
"              M n n n n n J K K K K K K K K M g g d d d d d s p p p p t i i r i r o . . = w w w w w 4 4 4 2 2 2 1               ",
"              n n n b b b b J J K K K K K K b g d g d d d a s p p p p t i r r r o . . . . * w w w 4 w 4 4 4 2 2                 ",
"            n n n b b b c c b J K K K K K J g g d d d d p p n K J g t t i t r 7 . . . . . . 0 w w 4 4 4 4 2 2                   ",
"            n n n b b b b c c c J J K K J x g g d d a d M [ +.+.+.+.( g r i r 8 . . . . . . 9 w w 4 4 4 4 2                     ",
"            n n b b b b b x b x c b n b c g g a d d a H O.+.+.+.+.+.+. .d r r r 5 . . . . X w w 4 4 4 4 2 2                     ",
"            n n b b b b c b x x g c g g g g g d d d d ..+.+.+.+.+.+.+.+.( r r r e * . . X q w 4 4 4 4 2 2                       ",
"            n n b b b b x b x x g c g g g d g a d a L +.X.F Z ^ +.+.+.+.+.s e e e e 0 9 w w w w 4 4 2 2                         ",
"            n n b b c b x x c c g g g g g g g a d a R { + . . . h +.+.+.+.M e r e e e e w w 4 4 4 4 2                           ",
"            n b b b b c x c x x x g g g d d d d a a Q h . . . . . ^ +.+.+.M e r e w w w w w w 4 4 4                             ",
"            b b b c c x x x x x x g g d g d d d a a I # . . . . . A +.+.+.g e e e e w w 4 4 4 4 2                               ",
"            n c c c c c x x x x g g g d d d d a a p g % . . . . . G +.+.' e e e e w w w w 4 4 4                                 ",
"      > ; - y c c c c x x x x g g g g g d d d a a p p k . . . . # X.+.O.c r e e e w w w 4 4 4                                   ",
"    c ; - - 3 v c c c c x x x g g g d d d d a a a p p i k & # B } +. .v e e e e w w w 4 4 4                                     ",
"  b c < - - ; z c c x x x x g g g g d d d a a a p p p i i a I ` ] _ m e r e e w w w 4 w 4                                       ",
"n b c i - - - e c x x x x g x g d d d d a a a p p p i i i t U W W W Y e e e w w w w 4                                           ",
"n n c x : - - : x x x x x g g g d d d d d a a a p p p i t p W W W W U e e e w w w w                                             ",
"n b c x e - - - q x g x g g g g d d d d a a a p p p i i t t E W W W x e e e w w w                                               ",
"n n c c f : - - - t c g g g g f d d d a a a p p i i i t t t z U P x e e e w w                                                   ",
"  b c x g i ; ; - ; p f g g g a d d a a a a p p i i i t t r r r e e e e w                                                       ",
"  n c x x d q - - - ; i g g g d d d a a a p p t i i t t r r r r r e e w                                                         ",
"    c x x d d , - - - , g d d d d a a a p p p i i t t r r r r e e e                                                             ",
"    c c x d d i , - >       d d d a a a p p p p i t p r r r r e                                                                 ",
"      x g d d p i               d a a p p p i i i t r r r r                                                                     ",
"                                      p p t t p t t r                                                                           "
};
